<svg width="139" height="282" viewBox="0 0 139 282" fill="none" xmlns="http://www.w3.org/2000/svg">
<path d="M26.6428 270.038L30.2445 275.346L48.2527 279.137L68.9148 280.274L89.5768 279.137L109.481 274.209L111.945 270.796V261.508L104.552 264.731L84.0796 266.437H51.2857L38.3956 264.731L26.6428 261.508V270.038Z" fill="#544C3C"/>
<path d="M7.49725 89.3873V101.33L9.77197 102.467L41.8077 104.173H79.151H108.533L129.384 102.467L131.091 98.8653L131.849 89.3873L109.291 91.0933H80.0988H38.9643L7.49725 89.3873Z" fill="#B19D77"/>
<path d="M6.35989 70.6208V88.2499L7.49725 89.3873L38.9643 91.0933H80.0988H109.291L131.849 89.3873L133.176 86.1648L135.125 69.8626L118.011 71.7582H81.2362H24.9368L6.35989 70.6208Z" fill="#B19D77"/>
<path d="M2 65.6922L6.35989 70.6208L24.9368 71.7582H81.2362H118.011L135.125 69.8626L135.261 68.7252L137.536 64.934L135.261 65.1549L118.011 66.8296H95.4532H81.2362H72.1373H57.162H43.7033H22.8516L19.25 66.6332L5.60164 65.8887L2 65.6922Z" fill="#B19D77"/>
<path d="M99.6235 59.6263L108.533 56.2142L110.428 56.6355L121.233 3.51648L117.253 2H112.324L99.6235 59.6263Z" fill="#FF7700"/>
<path fill-rule="evenodd" clip-rule="evenodd" d="M23.0412 256.579L9.77197 102.467L41.8077 104.173H79.151H108.533L129.384 102.467L114.978 256.579L111.945 259.992V261.508L104.552 264.731L84.0796 266.437H51.2857L38.3956 264.731L26.6428 261.508V259.992L23.0412 256.579ZM104.552 198.005L106.258 140.379L87.4917 142.464H69.8819H51.0866L36.1208 140.379L38.9643 198.005L52.6126 202.744L72.1458 204.261L92.4202 202.744L104.552 198.005Z" fill="url(#paint0_linear_123_3455)"/>
<path d="M106.258 140.379L104.552 198.005L92.4202 202.744L72.1458 204.261L52.6126 202.744L38.9643 198.005L36.1208 140.379L51.0866 142.464H69.8819H87.4917L106.258 140.379Z" fill="white"/>
<path d="M6.35989 70.6208L2 65.6922L5.60165 65.8887M6.35989 70.6208V88.2499L7.49725 89.3873M6.35989 70.6208L24.9368 71.7582H81.2362H118.011L135.125 69.8626M7.49725 89.3873V101.33L9.77197 102.467M7.49725 89.3873L38.9643 91.0933H80.0988H109.291L131.849 89.3873M9.77197 102.467L23.0412 256.579L26.6428 259.992V261.508M9.77197 102.467L41.8077 104.173H79.151H108.533L129.385 102.467M129.385 102.467L114.978 256.579L111.945 259.992V261.508M129.385 102.467L131.091 98.8653L131.849 89.3873M131.849 89.3873L133.176 86.1648L135.125 69.8626M135.125 69.8626L135.261 68.7252L137.536 64.934L135.261 65.1549M26.6428 261.508V270.038L30.2445 275.346L48.2527 279.137L68.9148 280.274L89.5768 279.137L109.481 274.209L111.945 270.796V261.508M26.6428 261.508L38.3956 264.731L51.2857 266.437H84.0796L104.552 264.731L111.945 261.508M5.60165 65.8887L9.77197 63.0384L22.4725 62.4697M5.60165 65.8887L19.25 66.6332M22.4725 62.4697L29.2967 57.3516H33.8461L41.0494 59.6263M22.4725 62.4697L19.25 66.6332M41.0494 59.6263L49.5796 54.8873M41.0494 59.6263L43.7033 63.9862V66.8296M49.5796 54.8873L54.6978 47.684L63.4175 50.5274L66.2609 56.2142M49.5796 54.8873L54.6978 58.489L58.3983 63.9862M66.2609 56.2142L72.1373 54.8873L74.9807 57.3516M66.2609 56.2142L59.0576 62.4697L58.3983 63.9862M74.9807 57.3516L82.184 53.3708L85.9752 57.3516M74.9807 57.3516L72.1373 63.9862V66.8296M85.9752 57.3516L87.4917 56.7718M85.9752 57.3516L92.4202 54.8873M92.4202 54.8873L99.6235 59.6263M92.4202 54.8873L87.4917 56.7718M99.6235 59.6263L108.533 56.2142L110.428 56.6355M99.6235 59.6263L95.4532 66.8296M99.6235 59.6263L112.324 2H117.253L121.233 3.51648L110.428 56.6355M135.261 65.1549L118.011 66.8296H95.4532M135.261 65.1549L119.717 54.8873L113.651 57.3516L110.428 56.6355M95.4532 66.8296H81.2362H72.1373M95.4532 66.8296L87.4917 56.7718M57.162 66.8296L58.3983 63.9862M57.162 66.8296H43.7033M57.162 66.8296H72.1373M43.7033 66.8296H22.8516L19.25 66.6332M36.1208 140.379L38.9643 198.005L52.6126 202.744L72.1458 204.261L92.4202 202.744L104.552 198.005L106.258 140.379L87.4917 142.464L69.8819 142.464L51.0866 142.464L36.1208 140.379Z" stroke="black" stroke-width="2.91965" stroke-linejoin="round"/>
<ellipse cx="30.0552" cy="254.494" rx="7.01373" ry="6.44505" fill="black"/>
<ellipse cx="41.8077" cy="259.423" rx="7.01373" ry="6.44505" fill="black"/>
<ellipse cx="54.6976" cy="260.181" rx="7.01373" ry="6.44505" fill="black"/>
<ellipse cx="52.4229" cy="249.187" rx="7.01373" ry="6.44505" fill="black"/>
<ellipse cx="69.8626" cy="260.181" rx="7.01373" ry="6.44505" fill="black"/>
<ellipse cx="63.0384" cy="245.395" rx="7.01373" ry="6.44505" fill="black"/>
<ellipse cx="107.396" cy="256.769" rx="7.01373" ry="6.44505" fill="black"/>
<ellipse cx="88.8187" cy="260.181" rx="7.01373" ry="6.44505" fill="black"/>
<ellipse cx="79.3404" cy="251.841" rx="7.01373" ry="6.44505" fill="black"/>
<ellipse cx="96.0218" cy="251.841" rx="7.01373" ry="6.44505" fill="black"/>
<ellipse cx="81.6151" cy="236.296" rx="7.01373" ry="6.44505" fill="black"/>
<ellipse cx="108.533" cy="240.846" rx="7.01373" ry="6.44505" fill="black"/>
<ellipse cx="40.6702" cy="247.291" rx="7.01373" ry="6.44505" fill="black"/>
<ellipse cx="28.5381" cy="238.95" rx="7.01373" ry="6.44505" fill="black"/>
<path d="M50.0588 158.128C50.1426 159.816 49.3973 161.217 48.07 160.982C46.527 160.709 45.9869 158.976 45.8885 156.994L45.7739 154.684C44.9182 154.532 44.4061 154.979 44.47 156.268C44.5145 157.165 45.0106 158.01 45.4927 158.439L44.6651 159.931C43.6836 158.859 43.1147 157.622 43.0313 155.943C42.9114 153.526 43.9593 152.302 45.6033 152.593L49.6864 153.315L49.7706 155.012L48.8186 155.072C49.6987 155.986 50.0002 156.946 50.0588 158.128ZM48.651 157.483C48.5893 156.239 47.8037 155.078 46.9597 154.893L47.0678 157.07C47.1167 158.057 47.5353 158.686 47.9598 158.761C48.4044 158.839 48.6925 158.318 48.651 157.483Z" fill="black"/>
<path d="M50.4643 166.303C50.5119 167.262 50.3309 168.191 49.7819 168.701L50.4557 168.82L50.5668 171.06L41.0598 169.378L40.9487 167.139L44.3984 167.749C43.7455 166.973 43.5038 166.005 43.4571 165.064C43.3367 162.638 44.9132 161.569 46.7729 161.898C48.6392 162.228 50.344 163.877 50.4643 166.303ZM48.9752 166.577C48.9029 165.119 48.0133 164.284 46.8813 164.084C45.7629 163.886 44.9007 164.412 44.973 165.869C45.0444 167.308 45.9606 168.14 47.0925 168.34C48.2245 168.54 49.0467 168.016 48.9752 166.577Z" fill="black"/>
<path d="M51.027 177.641C51.1636 180.396 49.6877 182.011 47.7809 181.674C45.8808 181.338 44.2103 179.166 44.0736 176.412C43.9374 173.666 45.4201 172.052 47.3201 172.388C49.2269 172.725 50.8907 174.895 51.027 177.641ZM49.612 177.391C49.5309 175.756 48.5415 174.929 47.4365 174.734C46.3383 174.54 45.4141 175.028 45.4953 176.663C45.5768 178.307 46.5658 179.125 47.664 179.319C48.769 179.514 49.6936 179.035 49.612 177.391Z" fill="black"/>
<path d="M51.4966 187.096C51.5442 188.056 51.3631 188.984 50.8141 189.495L51.4879 189.614L51.599 191.853L42.092 190.172L41.9809 187.932L45.4307 188.542C44.7777 187.766 44.536 186.799 44.4893 185.857C44.3689 183.431 45.9455 182.362 47.8051 182.691C49.6715 183.021 51.3762 184.67 51.4966 187.096ZM50.0075 187.37C49.9351 185.913 49.0455 185.077 47.9136 184.877C46.7951 184.679 45.9329 185.205 46.0052 186.662C46.0767 188.102 46.9928 188.933 48.1248 189.133C49.2567 189.334 50.0789 188.81 50.0075 187.37Z" fill="black"/>
<path d="M85.5959 178.481V167.297L100.382 164.264V175.448L85.5959 178.481Z" stroke="black" stroke-width="2.91965" stroke-linejoin="round"/>
<path d="M84.8376 195.351V184.167L99.6233 180.945L99.0547 191.939L84.8376 195.351Z" stroke="black" stroke-width="2.91965" stroke-linejoin="round"/>
<path d="M61.0574 157.118C60.4315 157.093 59.9749 156.677 59.8432 156.228L60.3052 156.02C60.3954 156.344 60.6808 156.623 61.087 156.639C61.4233 156.653 61.7355 156.519 61.7507 156.146C61.7838 155.337 59.9868 155.814 60.0373 154.576C60.0606 154.006 60.5853 153.651 61.1347 153.673C61.6973 153.696 62.0473 154.027 62.2331 154.378L61.8106 154.598C61.6808 154.346 61.478 154.167 61.1151 154.153C60.8088 154.14 60.553 154.28 60.541 154.573C60.5126 155.269 62.3311 154.836 62.278 156.138C62.251 156.8 61.67 157.143 61.0574 157.118ZM64.2166 157.257C63.3876 157.223 63.0853 156.541 63.1164 155.778L63.1968 153.807L63.7395 153.83L63.6587 155.81C63.6405 156.257 63.7501 156.758 64.2861 156.78C64.8188 156.802 65.2886 156.321 65.3099 155.798L65.3875 153.897L65.9302 153.919L65.7945 157.245L65.2518 157.223L65.2737 156.687C65.1088 156.967 64.716 157.278 64.2166 157.257ZM68.2125 158.874C67.54 158.847 66.7213 158.56 66.754 157.758C66.7616 157.571 66.8271 157.437 66.8315 157.411L67.4138 157.198C67.0017 157.001 66.8596 156.641 66.8672 156.455C66.8785 156.179 67.0522 155.926 67.2816 155.698C67.182 155.524 67.1301 155.325 67.1401 155.079C67.1687 154.38 67.7232 153.949 68.4157 153.977C68.6321 153.986 68.8395 154.051 69.0162 154.135L69.5783 153.681L69.858 154.099L69.3577 154.429C69.4929 154.628 69.5826 154.882 69.5707 155.175C69.5411 155.9 68.998 156.295 68.3089 156.267C68.0425 156.256 67.7958 156.173 67.604 156.052C67.5003 156.141 67.3578 156.282 67.3509 156.451C67.3366 156.801 67.9429 156.819 68.3986 156.848C69.0936 156.896 69.8 156.992 69.7667 157.807C69.7317 158.666 68.9683 158.905 68.2125 158.874ZM68.3268 155.828C68.7396 155.844 69.0214 155.559 69.0379 155.156C69.0543 154.753 68.8003 154.44 68.3841 154.423C67.978 154.406 67.7059 154.698 67.6895 155.101C67.673 155.504 67.9306 155.811 68.3268 155.828ZM68.2359 158.382C68.6288 158.398 69.2384 158.333 69.2592 157.823C69.2756 157.42 68.8415 157.353 68.3654 157.333C68.189 157.326 68.006 157.315 67.827 157.288L67.2326 157.717C67.2254 157.81 67.2904 158.343 68.2359 158.382ZM71.3651 157.539C70.7891 157.515 70.3124 157.102 70.3369 156.503C70.3661 155.787 70.8964 155.539 71.6023 155.568L72.6111 155.609C72.6363 154.99 72.4419 154.605 71.8193 154.579C71.4365 154.564 71.1073 154.784 70.9375 155.024L70.5505 154.701C70.874 154.291 71.2861 154.081 71.8654 154.104C72.7011 154.139 73.1521 154.69 73.1189 155.503L73.0358 157.54L72.5897 157.522L72.5796 156.952C72.2722 157.376 71.8978 157.561 71.3651 157.539ZM71.5213 157.062C72.1239 157.086 72.5687 156.564 72.5934 156.042L71.6312 156.002C71.235 155.986 70.9109 156.166 70.8962 156.526C70.881 156.899 71.1884 157.048 71.5213 157.062ZM74.0812 157.583L74.2169 154.257L74.7663 154.279L74.7418 154.879C74.8953 154.468 75.3243 154.252 75.6905 154.267C75.867 154.274 76.1212 154.338 76.2699 154.454L76.0447 154.905C75.9324 154.797 75.7842 154.751 75.6377 154.745C75.0517 154.721 74.7152 155.368 74.6825 156.17L74.6239 157.605L74.0812 157.583Z" fill="black"/>
<path d="M58.177 174.56C57.2785 174.524 56.8524 173.747 56.8863 172.916C56.9199 172.094 57.402 171.346 58.3005 171.383C58.8617 171.406 59.2811 171.742 59.4786 172.248L58.9983 172.425C58.9208 172.066 58.6413 171.839 58.2825 171.824C57.663 171.799 57.4204 172.401 57.3985 172.937C57.3762 173.483 57.5632 174.096 58.1888 174.121C58.5476 174.136 58.845 173.924 58.9513 173.578L59.3823 173.78C59.1771 174.291 58.7382 174.583 58.177 174.56ZM60.9218 174.672C60.3912 174.651 59.9521 174.27 59.9746 173.718C60.0015 173.059 60.4901 172.83 61.1402 172.856L62.0694 172.894C62.0927 172.324 61.9137 171.97 61.3402 171.946C60.9875 171.932 60.6843 172.134 60.5279 172.355L60.1714 172.058C60.4694 171.68 60.849 171.487 61.3826 171.509C62.1524 171.54 62.5678 172.048 62.5373 172.797L62.4607 174.674L62.0498 174.657L62.0405 174.131C61.7573 174.522 61.4124 174.692 60.9218 174.672ZM61.0656 174.233C61.6207 174.255 62.0305 173.774 62.0532 173.293L61.1669 173.257C60.8019 173.242 60.5033 173.408 60.4898 173.739C60.4758 174.083 60.759 174.22 61.0656 174.233ZM63.4237 174.713L63.5487 171.649L64.0547 171.67L64.0322 172.222C64.1735 171.844 64.5687 171.645 64.906 171.659C65.0686 171.665 65.3027 171.724 65.4397 171.831L65.2323 172.246C65.1288 172.147 64.9923 172.104 64.8574 172.099C64.3176 172.077 64.0076 172.672 63.9775 173.412L63.9235 174.733L63.4237 174.713ZM66.4848 174.899C65.9543 174.878 65.5152 174.497 65.5377 173.945C65.5646 173.286 66.0532 173.057 66.7033 173.083L67.6325 173.121C67.6558 172.551 67.4767 172.197 66.9033 172.173C66.5506 172.159 66.2474 172.361 66.0909 172.582L65.7345 172.285C66.0325 171.907 66.4121 171.714 66.9457 171.736C67.7154 171.767 68.1309 172.275 68.1004 173.024L68.0238 174.901L67.6128 174.884L67.6036 174.358C67.3204 174.749 66.9755 174.919 66.4848 174.899ZM66.6287 174.46C67.1838 174.482 67.5935 174.001 67.6163 173.52L66.73 173.484C66.365 173.469 66.0664 173.635 66.0529 173.966C66.0389 174.31 66.322 174.447 66.6287 174.46ZM69.0419 174.942L69.167 171.878L69.673 171.899L69.6528 172.393C69.8045 172.064 70.1323 171.859 70.4972 171.874C70.9235 171.892 71.2591 172.099 71.4021 172.51C71.6201 172.135 71.966 171.94 72.3861 171.958C73.1559 171.989 73.4388 172.584 73.4112 173.259L73.3354 175.117L72.8294 175.097L72.9031 173.29C72.9198 172.879 72.8131 172.408 72.3071 172.388C71.8195 172.368 71.528 172.81 71.508 173.301L71.4371 175.04L70.9311 175.019L71.0053 173.201C71.0222 172.787 70.9209 172.331 70.4211 172.311C69.9273 172.29 69.6389 172.733 69.6189 173.224L69.548 174.963L69.0419 174.942ZM75.4929 175.242C74.5483 175.204 74.1208 174.464 74.1547 173.633C74.1882 172.811 74.6673 172.063 75.5689 172.1C76.587 172.141 76.8589 172.933 76.8251 173.761C76.8231 173.81 76.8042 173.895 76.8042 173.895L74.6759 173.808C74.6578 174.327 74.9315 174.771 75.505 174.794C75.8608 174.809 76.1179 174.755 76.3674 174.513L76.7023 174.812C76.3448 175.142 75.9805 175.262 75.4929 175.242ZM74.6922 173.409L76.3544 173.477C76.3733 172.937 76.1121 172.564 75.5509 172.541C75.0142 172.519 74.7371 172.911 74.6922 173.409ZM78.1139 175.374C77.6631 175.355 77.6012 175.067 77.6173 174.672L77.7689 170.958L78.2718 170.978L78.1178 174.753C78.118 174.747 78.1196 174.935 78.2821 174.941C78.4109 174.947 78.5594 174.922 78.5594 174.922L78.5427 175.33C78.5427 175.33 78.3348 175.383 78.1139 175.374Z" fill="black"/>
<path d="M60.1646 190.378L60.3003 187.052L60.8496 187.074L60.8278 187.61C60.9924 187.253 61.3483 187.031 61.7445 187.047C62.2072 187.066 62.5716 187.291 62.7268 187.738C62.9635 187.33 63.339 187.119 63.7951 187.138C64.6307 187.172 64.9379 187.818 64.908 188.55L64.8256 190.568L64.2763 190.545L64.3563 188.584C64.3745 188.138 64.2587 187.627 63.7093 187.604C63.18 187.583 62.8635 188.063 62.8418 188.596L62.7648 190.484L62.2154 190.461L62.296 188.487C62.3143 188.038 62.2045 187.543 61.6618 187.521C61.1258 187.499 60.8127 187.98 60.7909 188.512L60.7139 190.4L60.1646 190.378ZM66.0794 186.567L66.1063 185.908L66.7256 185.933L66.6987 186.592L66.0794 186.567ZM65.9443 190.613L66.08 187.287L66.6294 187.31L66.4936 190.636L65.9443 190.613ZM68.3221 190.777C67.8327 190.757 67.7654 190.444 67.7829 190.015L67.9474 185.983L68.4934 186.005L68.3262 190.104C68.3265 190.097 68.3282 190.301 68.5046 190.308C68.6445 190.313 68.8056 190.287 68.8056 190.287L68.7876 190.729C68.7876 190.729 68.5618 190.787 68.3221 190.777ZM69.6665 190.765L69.8585 186.061L70.4012 186.083L70.2743 189.193L71.7965 187.521L72.4823 187.549L71.3234 188.735L72.5497 190.883L71.9072 190.857L70.9657 189.084L70.249 189.812L70.2092 190.787L69.6665 190.765Z" fill="black"/>
<path d="M87.302 153.648L92.6097 160.662L98.8652 145.308" stroke="#FBE600" stroke-width="2.91965" stroke-linejoin="round"/>
<defs>
<linearGradient id="paint0_linear_123_3455" x1="69.7678" y1="2" x2="69.7678" y2="280.274" gradientUnits="userSpaceOnUse">
<stop stop-color="#D9D9D9"/>
<stop offset="0.5" stop-color="#B19D77"/>
<stop offset="1" stop-color="#544C3C"/>
</linearGradient>
</defs>
</svg>
