<svg width="472" height="606" viewBox="0 0 472 606" fill="none" xmlns="http://www.w3.org/2000/svg">
<path d="M32.8634 121.718L60.0025 140.371L51.1837 112.724L98.4834 72.4193L182.091 42.1075L223.728 32.7808L244.546 28.1174L265.365 23.4541H314.996L351.304 36.9153L353.635 40.1089L362.296 21.4555L314.996 4.46758H256.038L163.77 26.785L84.4934 58.4292L32.8634 99.4001V121.718Z" fill="white"/>
<path d="M275.358 391.193L207.406 412.511L175.429 436.146L190.751 484.46L231.722 464.474L305.669 440.824L383.614 423.503H413.926L403.933 371.54H360.297L275.358 391.193Z" fill="white"/>
<path d="M190.751 484.46L175.429 436.146L137.579 492.787L132.459 500.448L111.141 461.143L115.471 423.17L108.476 382.532L129.054 336.065L124.798 286.933L108.476 238.968L89.009 231.306L68.1716 238.968L67.103 252.958L80.8293 260.286L72.835 301.923H57.9285L32.1972 360.548L17.541 464.474L14.21 490.122L4.8833 515.438L9.87975 538.088L27.867 601.71H446.902L450.739 574.729L409.262 549.413L383.614 524.764L370.623 523.099L356.3 504.445H335.981L327.654 492.787L291.346 480.129L268.363 523.099V473.284L235.053 482.461L190.751 484.46Z" fill="white"/>
<path d="M231.722 464.474L190.751 484.46L235.053 482.461L268.363 473.284L288.682 467.686L300.34 464.474L343.309 451.93L353.968 448.818L403.933 427.722L413.926 423.503H383.614L305.669 440.824L231.722 464.474Z" fill="white"/>
<path d="M403.933 427.722L353.968 448.818L343.309 451.93L327.654 492.787L335.981 504.445H356.3L370.623 523.099L383.614 524.764L396.605 480.129L403.933 427.722Z" fill="white"/>
<path d="M427.25 443.156L403.933 427.722L396.605 480.129L383.614 524.764L409.262 549.413L450.739 574.729L467.887 454.148L465.168 443.156H427.25Z" fill="white"/>
<path d="M409.262 371.54H403.933L413.926 423.503L403.933 427.722L427.25 443.156H465.168L444.571 359.882H427.25L409.262 371.54Z" fill="white"/>
<path d="M444.571 359.882V343.893L437.576 330.902L427.25 321.575L409.262 310.583H398.704L409.262 371.54L427.25 359.882H444.571Z" fill="white"/>
<path d="M398.704 310.583L413.926 295.927L409.262 276.607L389.993 260.286L398.704 310.583Z" fill="white"/>
<path d="M223.728 32.7808C223.548 103.064 300.34 152.029 365.357 118.053L362.296 100.379C361.64 100.403 360.974 100.423 360.297 100.439C310.333 128.486 243.629 88.3935 244.546 28.1174L223.728 32.7808Z" fill="black"/>
<path fill-rule="evenodd" clip-rule="evenodd" d="M314.996 23.4541H265.365L244.546 28.1174C243.629 88.3935 310.333 128.486 360.297 100.439C360.974 100.423 361.64 100.403 362.296 100.379L351.304 36.9153L314.996 23.4541ZM182.091 42.1075L223.728 32.7808C223.548 103.064 300.34 152.029 365.357 118.053L389.993 260.286L398.704 310.583L409.262 371.54H403.933H360.297L275.358 391.193L207.406 412.511L175.429 436.146L169.1 440.824L142.615 371.54C300.34 234.97 158.108 155.36 78.0652 196.997L51.1837 112.724L98.4834 72.4193L182.091 42.1075ZM84.4934 217.15L89.009 231.306L108.476 238.968L124.798 286.933L129.054 336.065L135.994 354.219C264.699 235.303 135.994 176.678 84.4934 217.15Z" fill="white"/>
<path d="M84.4934 217.15C135.994 176.678 264.699 235.303 135.994 354.219L142.615 371.54C300.34 234.97 158.108 155.36 78.0652 196.997L84.4934 217.15Z" fill="black"/>
<path d="M51.1837 112.724L98.4834 72.4193L182.091 42.1075L223.728 32.7808M51.1837 112.724L60.0025 140.371L32.8634 121.718V99.4001L84.4934 58.4292L163.77 26.785L256.038 4.46758H314.996L362.296 21.4555L353.635 40.1089L351.304 36.9153M51.1837 112.724L78.0652 196.997M409.262 371.54H403.933M409.262 371.54L398.704 310.583M409.262 371.54L427.25 359.882H444.571M351.304 36.9153L314.996 23.4541H265.365L244.546 28.1174M351.304 36.9153L362.296 100.379M175.429 436.146L169.1 440.824L142.615 371.54M175.429 436.146L207.406 412.511L275.358 391.193L360.297 371.54H403.933M175.429 436.146L190.751 484.46M175.429 436.146L137.579 492.787M190.751 484.46L231.722 464.474L305.669 440.824L383.614 423.503H413.926M190.751 484.46L235.053 482.461L268.363 473.284M413.926 423.503L403.933 371.54M413.926 423.503L403.933 427.722M89.009 231.306L68.1716 238.968L67.103 252.958M89.009 231.306L108.476 238.968L124.798 286.933L129.054 336.065M89.009 231.306L84.4934 217.15M129.054 336.065L108.476 382.532M129.054 336.065L135.994 354.219M108.476 382.532L115.471 423.17L111.141 461.143L132.459 500.448L137.579 492.787M108.476 382.532L72.835 371.54M444.571 359.882V343.893L437.576 330.902L427.25 321.575L409.262 310.583H398.704M444.571 359.882L465.168 443.156M398.704 310.583L413.926 295.927L409.262 276.607L389.993 260.286M398.704 310.583L389.993 260.286M389.993 260.286L365.357 118.053M403.933 427.722L353.968 448.818L343.309 451.93M403.933 427.722L427.25 443.156H465.168M403.933 427.722L396.605 480.129L383.614 524.764M465.168 443.156L467.887 454.148L450.739 574.729M343.309 451.93L300.34 464.474L288.682 467.686M343.309 451.93L327.654 492.787M327.654 492.787L335.981 504.445H356.3L370.623 523.099L383.614 524.764M327.654 492.787L291.346 480.129M383.614 524.764L409.262 549.413L450.739 574.729M450.739 574.729L446.902 601.71H27.867L9.87975 538.088L4.8833 515.438L14.21 490.122L17.541 464.474L32.1972 360.548L57.9285 301.923M291.346 480.129L288.682 467.686M291.346 480.129L268.363 523.099V473.284M288.682 467.686L268.363 473.284M137.579 492.787L167.434 498.45L210.737 538.088L235.053 581.724M67.103 252.958L64.5076 286.933L57.9285 301.923M67.103 252.958L80.8293 260.286L72.835 301.923H57.9285M223.728 32.7808C223.548 103.064 300.34 152.029 365.357 118.053M223.728 32.7808L244.546 28.1174M365.357 118.053L362.296 100.379M362.296 100.379C361.64 100.403 360.974 100.423 360.297 100.439C310.333 128.486 243.629 88.3935 244.546 28.1174M84.4934 217.15C135.994 176.678 264.699 235.303 135.994 354.219M84.4934 217.15L78.0652 196.997M135.994 354.219L142.615 371.54M78.0652 196.997C158.108 155.36 300.34 234.97 142.615 371.54" stroke="black" stroke-width="7.88062" stroke-linejoin="round"/>
</svg>
