<svg width="408" height="410" viewBox="0 0 408 410" fill="none" xmlns="http://www.w3.org/2000/svg">
<path d="M25.7849 314.264L46.9937 346.418L80.3839 381.961L138.939 404.821L202.275 405.282L255.22 383.236L298.691 348.254L302.122 338.712L310.167 316.338L311.824 311.731L319.736 267.253L326.431 216.827L328.75 199.36L312.408 231.571L277.841 266.947L244.374 287.157L187.859 301.26L129.8 300.837L75.8541 279.33L42.0714 252.362L12.8469 216.85L25.7849 314.264Z" fill="url(#paint0_linear_123_3537)"/>
<path d="M278.053 237.918L312.644 199.242L328.994 165.927L324.919 144.569L312.956 111.162L279.234 75.9474L246.116 48.3244L197.06 34.7708L131.727 36.6036L82.7897 52.0817L48.9785 74.2681L17.6186 122.204L8.90241 168.326L17.0725 197.087L51.7558 236.267L109.273 265.718L166.939 274.716L220.112 266.526L278.053 237.918Z" fill="url(#paint1_linear_123_3537)"/>
<path d="M312.644 199.242L278.053 237.918L220.112 266.526L166.939 274.716L109.273 265.718L51.7558 236.267L17.0725 197.087L8.90241 168.326L4.20695 151.797L12.8469 216.85L42.0714 252.362L75.8541 279.33L129.8 300.837L187.859 301.26L244.374 287.157L277.841 266.947L312.408 231.571L328.75 199.36L331.748 176.784L334.746 154.208L328.994 165.927L312.644 199.242Z" fill="url(#paint2_linear_123_3537)" fill-opacity="0.6"/>
<path d="M334.746 154.208L330.139 107.329L306.402 59.9806L264.423 26.025L218.695 8.53686L163.634 4.17654L127.648 7.87285L82.9894 24.7018L49.1782 46.8881L22.5882 74.0756L7.45975 112.893L4.20695 151.797M334.746 154.208L328.994 165.927M334.746 154.208L331.748 176.784M4.20695 151.797L12.8469 216.85M4.20695 151.797L8.90241 168.326M12.8469 216.85L25.7849 314.263L46.9937 346.418L80.3839 381.961L138.939 404.821L202.275 405.282L255.22 383.236L298.691 348.254L302.122 338.712M12.8469 216.85L42.0714 252.362L75.8541 279.33L129.8 300.837L187.859 301.26L244.374 287.157L277.841 266.947L312.408 231.571L328.75 199.36M328.75 199.36L331.748 176.784M328.75 199.36L326.431 216.827M8.90241 168.326L17.0725 197.087L51.7558 236.267L109.273 265.718L166.939 274.716L220.112 266.526L278.053 237.918L312.644 199.242L328.994 165.927M8.90241 168.326L17.6186 122.204L48.9785 74.2681L82.7897 52.0817L131.727 36.6036L197.06 34.7708L246.116 48.3244L279.234 75.9474L312.956 111.162L324.919 144.569L328.994 165.927M331.748 176.784L361.223 187.72L403.83 225.969L388.579 281.61L370.581 306.881M326.431 216.827L319.736 267.253L311.824 311.731L310.167 316.338M326.431 216.827L352.699 225.596L383.47 258.48L377.025 282.681M370.581 306.881L333.483 327.394L302.122 338.712M370.581 306.881L377.025 282.681M302.122 338.712L310.167 316.338M310.167 316.338L349.17 302.436L377.025 282.681" stroke="black" stroke-width="8" stroke-linejoin="round"/>
<defs>
<linearGradient id="paint0_linear_123_3537" x1="213.132" y1="-88.1634" x2="202.44" y2="405.284" gradientUnits="userSpaceOnUse">
<stop stop-color="white"/>
<stop offset="0.605" stop-color="#B19D77"/>
<stop offset="1" stop-color="#544C3C"/>
</linearGradient>
<linearGradient id="paint1_linear_123_3537" x1="213.132" y1="-88.1634" x2="202.44" y2="405.284" gradientUnits="userSpaceOnUse">
<stop stop-color="white"/>
<stop offset="0.653657" stop-color="#B19D77"/>
<stop offset="1" stop-color="#544C3C"/>
</linearGradient>
<linearGradient id="paint2_linear_123_3537" x1="213.132" y1="-88.1634" x2="202.44" y2="405.284" gradientUnits="userSpaceOnUse">
<stop stop-color="white"/>
<stop offset="0.605" stop-color="#B19D77"/>
<stop offset="1" stop-color="#544C3C"/>
</linearGradient>
</defs>
</svg>
