<svg width="1440" height="685" viewBox="0 0 1440 685" fill="none" xmlns="http://www.w3.org/2000/svg">
<path d="M108.817 142.786L114.011 170.376L132.837 189.202L162.375 198.94L182.824 189.958L194.834 172.323L196.133 147.005L186.719 128.179L167.244 115.195H139.654L121.801 125.258L108.817 142.786Z" fill="url(#paint0_linear_247_2)"/>
<path d="M513.259 72.6736L518.452 100.264L537.279 119.09L566.817 128.828L587.266 119.846L599.276 102.211L600.574 76.8933L591.161 58.067L571.685 45.0833H544.095L526.242 55.1456L513.259 72.6736Z" fill="url(#paint1_linear_247_2)"/>
<path d="M361.025 256.068L366.219 283.658L385.045 302.485L414.583 312.223L435.032 303.24L447.042 285.606L448.34 260.288L438.927 241.462L419.452 228.478H391.861L374.009 238.54L361.025 256.068Z" fill="url(#paint2_linear_247_2)"/>
<path d="M-37.5735 330.237L-32.38 357.828L-13.5537 376.654L15.9842 386.392L36.4335 377.409L48.4434 359.775L49.7418 334.457L40.3286 315.631L20.8531 302.647H-6.73723L-24.5898 312.709L-37.5735 330.237Z" fill="url(#paint3_linear_247_2)"/>
<path d="M603.82 399.213L609.013 426.803L627.84 445.63L657.378 455.368L677.827 446.385L689.837 428.751L691.135 403.433L681.722 384.607L662.246 371.623H634.656L616.804 381.685L603.82 399.213Z" fill="url(#paint4_linear_247_2)"/>
<path d="M761.571 209.165L766.765 236.755L785.591 255.581L815.129 265.319L835.578 256.337L847.588 238.702L848.887 213.384L839.474 194.558L819.998 181.574H792.408L774.555 191.637L761.571 209.165Z" fill="url(#paint5_linear_247_2)"/>
<path d="M823.244 157.23L849.86 171.836L866.415 194.558L873.556 217.604L867.573 237.729L881.021 243.571L893.031 252.984L898.649 258.827V222.797L887.838 195.207L862.195 162.748L831.034 146.194L797.277 139.702L759.624 144.571L727.489 167.941L706.391 204.296L703.145 236.755L708.338 268.889L722.945 294.857L749.886 320.5L785.591 330.887H821.946L862.844 317.254L878.749 299.726L892.707 276.193L889.136 278.303L875.179 268.889L854.46 258.827L853.106 260.775L825.516 278.303L804.742 279.926L782.345 274.083L764.493 261.424L754.755 238.702L749.886 213.384L757.676 184.496L774.555 166.318L797.277 157.23H823.244Z" fill="white"/>
<path d="M574.931 20.7389L601.548 35.3455L618.102 58.067L625.243 81.113L619.26 101.238L632.709 107.08L644.719 116.494L650.336 122.336V86.3065L639.525 58.7162L613.882 26.257L582.721 9.70278L548.964 3.21094L511.311 8.07982L479.177 31.4504L458.078 67.8047L454.832 100.264L460.026 132.399L474.632 158.366L501.574 184.009L537.279 194.396H573.633L614.531 180.763L630.437 163.235L644.394 139.702L640.823 141.812L626.866 132.399L606.147 122.336L604.794 124.284L577.203 141.812L556.43 143.435L534.033 137.592L516.18 124.933L506.442 102.211L501.574 76.8933L509.364 48.0046L526.242 29.8275L548.964 20.7389H574.931Z" fill="white"/>
<path d="M422.698 204.133L449.314 218.74L465.868 241.462L473.009 264.508L467.026 284.632L480.475 290.475L492.485 299.888L498.103 305.731V269.701L487.292 242.111L461.649 209.651L430.488 193.097L396.73 186.605L359.078 191.474L326.943 214.845L305.845 251.199L302.599 283.658L307.792 315.793L322.399 341.76L349.34 367.403L385.045 377.79H421.399L462.298 364.157L478.203 346.629L492.16 323.096L488.59 325.206L474.632 315.793L453.914 305.731L452.56 307.678L424.97 325.206L404.196 326.829L381.799 320.987L363.947 308.327L354.209 285.606L349.34 260.288L357.13 231.399L374.009 213.222L396.73 204.133H422.698Z" fill="white"/>
<path d="M271.438 409.276L298.054 423.882L314.608 446.604L321.749 469.65L315.766 489.774L329.215 495.617L341.225 505.03L346.843 510.873V474.843L336.031 447.253L310.389 414.794L279.228 398.239L245.47 391.748L207.818 396.616L175.683 419.987L154.585 456.341L151.339 488.801L156.532 520.935L171.139 546.903L198.08 572.545L233.785 582.932H270.139L311.038 569.299L326.943 551.771L340.9 528.238L337.33 530.348L323.372 520.935L302.654 510.873L301.3 512.82L273.71 530.348L252.936 531.971L230.539 526.129L212.687 513.47L202.949 490.748L198.08 465.43L205.87 436.541L222.749 418.364L245.47 409.276H271.438Z" fill="white"/>
<path d="M170.49 90.8508L197.106 105.457L213.661 128.179L220.802 151.225L214.819 171.35L228.267 177.192L240.277 186.605L245.895 192.448V156.418L235.084 128.828L209.441 96.3689L178.28 79.8147L144.522 73.3229L106.87 78.1917L74.7352 101.562L53.6367 137.917L50.3908 170.376L55.5843 202.51L70.1909 228.478L97.132 254.121L132.837 264.508H169.191L210.09 250.875L225.995 233.347L239.952 209.814L236.382 211.924L222.424 202.51L201.706 192.448L200.352 194.396L172.762 211.924L151.988 213.547L129.591 207.704L111.739 195.045L102.001 172.323L97.132 147.005L104.922 118.117L121.801 99.9394L144.522 90.8508H170.49Z" fill="white"/>
<path d="M613.233 374.544L603.82 399.213L616.804 381.685L634.656 371.623H662.246L681.722 384.607L691.135 403.433L689.837 428.751L677.827 446.385L692.109 440.112L703.145 417.715L697.627 387.528L673.282 362.859L657.378 356.367L630.112 361.885L613.233 374.544Z" fill="white"/>
<path fill-rule="evenodd" clip-rule="evenodd" d="M692.109 361.885L665.492 347.278H639.525L616.804 356.367L599.925 374.544L592.135 403.433L597.003 428.751L616.804 450.823L642.446 463.158H670.361L695.355 450.823L696.708 448.876L708.663 431.672L709.821 427.777L715.804 407.653L708.663 384.607L692.109 361.885ZM609.013 426.803L603.82 399.213L613.233 374.544L630.112 361.885L657.378 356.367L673.282 362.859L697.627 387.528L703.145 417.715L692.109 440.112L677.827 446.385L657.378 455.368L627.84 445.63L609.013 426.803Z" fill="white"/>
<path d="M709.821 427.777L708.663 431.672L696.708 448.876L717.427 458.938L731.384 468.351L734.955 466.241L738.525 464.132L743.394 451.472L740.897 448.876L735.28 443.033L723.27 433.62L709.821 427.777Z" fill="white"/>
<path fill-rule="evenodd" clip-rule="evenodd" d="M449.314 218.74L422.698 204.133H396.73L374.009 213.222L357.13 231.399L349.34 260.288L354.209 285.606L374.009 307.678L399.652 320.013H427.567L452.56 307.678L453.914 305.731L465.868 288.527L467.026 284.632L473.009 264.508L465.868 241.462L449.314 218.74ZM366.219 283.658L361.025 256.068L370.438 231.399L387.317 218.74L414.583 213.222L430.488 219.714L454.832 244.383L460.35 274.57L449.314 296.967L435.032 303.24L414.583 312.223L385.045 302.485L366.219 283.658Z" fill="white"/>
<path d="M370.438 231.399L361.025 256.068L374.009 238.54L391.861 228.478H419.452L438.927 241.462L448.34 260.288L447.042 285.606L435.032 303.24L449.314 296.967L460.35 274.57L454.832 244.383L430.488 219.714L414.583 213.222L387.317 218.74L370.438 231.399Z" fill="white"/>
<path d="M467.026 284.632L465.868 288.527L453.914 305.731L474.632 315.793L488.59 325.206L492.16 323.096L495.731 320.987L500.6 308.327L498.103 305.731L492.485 299.888L480.475 290.475L467.026 284.632Z" fill="white"/>
<path d="M619.26 101.238L618.102 105.133L606.147 122.336L626.866 132.399L640.823 141.812L644.394 139.702L647.964 137.592L652.833 124.933L650.336 122.336L644.719 116.494L632.709 107.08L619.26 101.238Z" fill="white"/>
<path d="M774.555 260.775L754.755 238.702L764.493 261.424L782.345 274.083L804.742 279.926L825.516 278.303L853.106 260.775L828.113 273.109H800.198L774.555 260.775Z" fill="white"/>
<path d="M526.242 124.284L506.442 102.211L516.18 124.933L534.033 137.592L556.43 143.435L577.203 141.812L604.794 124.284L579.8 136.618H551.885L526.242 124.284Z" fill="white"/>
<path d="M374.009 307.678L354.209 285.606L363.947 308.327L381.799 320.987L404.196 326.829L424.97 325.206L452.56 307.678L427.567 320.013H399.652L374.009 307.678Z" fill="white"/>
<path d="M616.804 450.823L597.003 428.751L606.741 451.472L624.594 464.132L646.991 469.974L667.764 468.351L695.355 450.823L670.361 463.158H642.446L616.804 450.823Z" fill="white"/>
<path fill-rule="evenodd" clip-rule="evenodd" d="M298.054 423.882L271.438 409.276H245.47L222.749 418.364L205.87 436.541L198.08 465.43L202.949 490.748L222.749 512.82L248.392 525.155H276.307L301.3 512.82L302.654 510.873L314.608 493.669L315.766 489.774L321.749 469.65L314.608 446.604L298.054 423.882ZM214.959 488.801L209.765 461.21L219.178 436.541L236.057 423.882L263.323 418.364L279.228 424.856L303.572 449.525L309.09 479.712L298.054 502.109L283.772 508.382L263.323 517.365L233.785 507.627L214.959 488.801Z" fill="white"/>
<path d="M315.766 489.774L314.608 493.669L302.654 510.873L323.372 520.935L337.33 530.348L340.9 528.238L344.471 526.129L349.34 513.47L346.843 510.873L341.225 505.03L329.215 495.617L315.766 489.774Z" fill="white"/>
<path d="M219.178 436.541L209.765 461.21L222.749 443.682L240.602 433.62H268.192L287.667 446.604L297.08 465.43L295.782 490.748L283.772 508.382L298.054 502.109L309.09 479.712L303.572 449.525L279.228 424.856L263.323 418.364L236.057 423.882L219.178 436.541Z" fill="white"/>
<path d="M222.749 512.82L202.949 490.748L212.687 513.47L230.539 526.129L252.936 531.971L273.71 530.348L301.3 512.82L276.307 525.155H248.392L222.749 512.82Z" fill="white"/>
<path fill-rule="evenodd" clip-rule="evenodd" d="M197.106 105.457L170.49 90.8508H144.522L121.801 99.9394L104.922 118.117L97.132 147.005L102.001 172.323L121.801 194.396L147.444 206.73H175.359L200.352 194.396L201.706 192.448L213.661 175.245L214.819 171.35L220.802 151.225L213.661 128.179L197.106 105.457ZM114.011 170.376L108.817 142.786L118.23 118.117L135.109 105.457L162.375 99.9394L178.28 106.431L202.624 131.1L208.142 161.287L197.106 183.684L182.824 189.958L162.375 198.94L132.837 189.202L114.011 170.376Z" fill="white"/>
<path d="M214.819 171.35L213.661 175.245L201.706 192.448L222.424 202.51L236.382 211.924L239.952 209.814L243.523 207.704L248.392 195.045L245.895 192.448L240.277 186.605L228.267 177.192L214.819 171.35Z" fill="white"/>
<path d="M118.23 118.117L108.817 142.786L121.801 125.258L139.654 115.195H167.244L186.719 128.179L196.133 147.005L194.834 172.323L182.824 189.958L197.106 183.684L208.142 161.287L202.624 131.1L178.28 106.431L162.375 99.9394L135.109 105.457L118.23 118.117Z" fill="white"/>
<path fill-rule="evenodd" clip-rule="evenodd" d="M601.548 35.3455L574.931 20.7389H548.964L526.242 29.8275L509.364 48.0046L501.574 76.8933L506.442 102.211L526.242 124.284L551.885 136.618H579.8L604.794 124.284L606.147 122.336L618.102 105.133L619.26 101.238L625.243 81.113L618.102 58.067L601.548 35.3455ZM518.452 100.264L513.259 72.6736L522.672 48.0046L539.551 35.3455L566.817 29.8275L582.721 36.3193L607.066 60.9883L612.584 91.1754L601.548 113.572L587.266 119.846L566.817 128.828L537.279 119.09L518.452 100.264Z" fill="white"/>
<path d="M522.672 48.0046L513.259 72.6736L526.242 55.1456L544.095 45.0833H571.685L591.161 58.067L600.574 76.8933L599.276 102.211L587.266 119.846L601.548 113.572L612.584 91.1754L607.066 60.9883L582.721 36.3193L566.817 29.8275L539.551 35.3455L522.672 48.0046Z" fill="white"/>
<path d="M209.765 461.21L214.959 488.801L233.785 507.627L263.323 517.365L283.772 508.382L295.782 490.748L297.08 465.43L287.667 446.604L268.192 433.62H240.602L222.749 443.682L209.765 461.21Z" fill="url(#paint6_linear_247_2)"/>
<path d="M361.025 256.068L366.219 283.658L385.045 302.485L414.583 312.223L435.032 303.24M361.025 256.068L370.438 231.399L387.317 218.74L414.583 213.222L430.488 219.714L454.832 244.383L460.35 274.57L449.314 296.967L435.032 303.24M361.025 256.068L374.009 238.54L391.861 228.478H419.452L438.927 241.462L448.34 260.288L447.042 285.606L435.032 303.24M354.209 285.606L349.34 260.288L357.13 231.399L374.009 213.222L396.73 204.133H422.698L449.314 218.74L465.868 241.462L473.009 264.508L467.026 284.632M354.209 285.606L374.009 307.678L399.652 320.013H427.567L452.56 307.678M354.209 285.606L363.947 308.327L381.799 320.987L404.196 326.829L424.97 325.206L452.56 307.678M452.56 307.678L453.914 305.731M467.026 284.632L465.868 288.527L453.914 305.731M467.026 284.632L480.475 290.475L492.485 299.888L498.103 305.731M453.914 305.731L474.632 315.793L488.59 325.206L492.16 323.096M498.103 305.731L500.6 308.327L495.731 320.987L492.16 323.096M498.103 305.731V269.701L487.292 242.111L461.649 209.651L430.488 193.097L396.73 186.605L359.078 191.474L326.943 214.845L305.845 251.199L302.599 283.658L307.792 315.793L322.399 341.76L349.34 367.403L385.045 377.79H421.399L462.298 364.157L478.203 346.629L492.16 323.096M209.765 461.21L214.959 488.801L233.785 507.627L263.323 517.365L283.772 508.382M209.765 461.21L219.178 436.541L236.057 423.882L263.323 418.364L279.228 424.856L303.572 449.525L309.09 479.712L298.054 502.109L283.772 508.382M209.765 461.21L222.749 443.682L240.602 433.62H268.192L287.667 446.604L297.08 465.43L295.782 490.748L283.772 508.382M202.949 490.748L198.08 465.43L205.87 436.541L222.749 418.364L245.47 409.276H271.438L298.054 423.882L314.608 446.604L321.749 469.65L315.766 489.774M202.949 490.748L222.749 512.82L248.392 525.155H276.307L301.3 512.82M202.949 490.748L212.687 513.47L230.539 526.129L252.936 531.971L273.71 530.348L301.3 512.82M301.3 512.82L302.654 510.873M315.766 489.774L314.608 493.669L302.654 510.873M315.766 489.774L329.215 495.617L341.225 505.03L346.843 510.873M302.654 510.873L323.372 520.935L337.33 530.348L340.9 528.238M346.843 510.873L349.34 513.47L344.471 526.129L340.9 528.238M346.843 510.873V474.843L336.031 447.253L310.389 414.794L279.228 398.239L245.47 391.748L207.818 396.616L175.683 419.987L154.585 456.341L151.339 488.801L156.532 520.935L171.139 546.903L198.08 572.545L233.785 582.932H270.139L311.038 569.299L326.943 551.771L340.9 528.238M603.82 399.213L609.013 426.803L627.84 445.63L657.378 455.368L677.827 446.385M603.82 399.213L613.233 374.544L630.112 361.885L657.378 356.367L673.282 362.859L697.627 387.528L703.145 417.715L692.109 440.112L677.827 446.385M603.82 399.213L616.804 381.685L634.656 371.623H662.246L681.722 384.607L691.135 403.433L689.837 428.751L677.827 446.385M597.003 428.751L592.135 403.433L599.925 374.544L616.804 356.367L639.525 347.278H665.492L692.109 361.885L708.663 384.607L715.804 407.653L709.821 427.777M597.003 428.751L616.804 450.823L642.446 463.158H670.361L695.355 450.823M597.003 428.751L606.741 451.472L624.594 464.132L646.991 469.974L667.764 468.351L695.355 450.823M695.355 450.823L696.708 448.876M709.821 427.777L708.663 431.672L696.708 448.876M709.821 427.777L723.27 433.62L735.28 443.033L740.897 448.876M696.708 448.876L717.427 458.938L731.384 468.351L734.955 466.241M740.897 448.876L743.394 451.472L738.525 464.132L734.955 466.241M740.897 448.876V412.846L730.086 385.256L704.443 352.797L673.282 336.242L639.525 329.75L601.872 334.619L569.738 357.99L548.639 394.344L545.393 426.803L550.587 458.938L565.193 484.905L592.135 510.548L627.84 520.935H664.194L705.093 507.302L720.997 489.774L734.955 466.241M108.817 142.786L114.011 170.376L132.837 189.202L162.375 198.94L182.824 189.958M108.817 142.786L118.23 118.117L135.109 105.457L162.375 99.9394L178.28 106.431L202.624 131.1L208.142 161.287L197.106 183.684L182.824 189.958M108.817 142.786L121.801 125.258L139.654 115.195H167.244L186.719 128.179L196.133 147.005L194.834 172.323L182.824 189.958M102.001 172.323L97.132 147.005L104.922 118.117L121.801 99.9394L144.522 90.8508H170.49L197.106 105.457L213.661 128.179L220.802 151.225L214.819 171.35M102.001 172.323L121.801 194.396L147.444 206.73H175.359L200.352 194.396M102.001 172.323L111.739 195.045L129.591 207.704L151.988 213.547L172.762 211.924L200.352 194.396M200.352 194.396L201.706 192.448M214.819 171.35L213.661 175.245L201.706 192.448M214.819 171.35L228.267 177.192L240.277 186.605L245.895 192.448M201.706 192.448L222.424 202.51L236.382 211.924L239.952 209.814M245.895 192.448L248.392 195.045L243.523 207.704L239.952 209.814M245.895 192.448V156.418L235.084 128.828L209.441 96.3689L178.28 79.8147L144.522 73.3229L106.87 78.1917L74.7352 101.562L53.6367 137.917L50.3908 170.376L55.5843 202.51L70.1909 228.478L97.132 254.121L132.837 264.508H169.191L210.09 250.875L225.995 233.347L239.952 209.814M513.259 72.6736L518.452 100.264L537.279 119.09L566.817 128.828L587.266 119.846M513.259 72.6736L522.672 48.0046L539.551 35.3455L566.817 29.8275L582.721 36.3193L607.066 60.9883L612.584 91.1754L601.548 113.572L587.266 119.846M513.259 72.6736L526.242 55.1456L544.095 45.0833H571.685L591.161 58.067L600.574 76.8933L599.276 102.211L587.266 119.846M506.442 102.211L501.574 76.8933L509.364 48.0046L526.242 29.8275L548.964 20.7389H574.931L601.548 35.3455L618.102 58.067L625.243 81.113L619.26 101.238M506.442 102.211L526.242 124.284L551.885 136.618H579.8L604.794 124.284M506.442 102.211L516.18 124.933L534.033 137.592L556.43 143.435L577.203 141.812L604.794 124.284M604.794 124.284L606.147 122.336M619.26 101.238L618.102 105.133L606.147 122.336M619.26 101.238L632.709 107.08L644.719 116.494L650.336 122.336M606.147 122.336L626.866 132.399L640.823 141.812L644.394 139.702M650.336 122.336L652.833 124.933L647.964 137.592L644.394 139.702M650.336 122.336V86.3065L639.525 58.7162L613.882 26.257L582.721 9.70278L548.964 3.21094L511.311 8.07982L479.177 31.4504L458.078 67.8047L454.832 100.264L460.026 132.399L474.632 158.366L501.574 184.009L537.279 194.396H573.633L614.531 180.763L630.437 163.235L644.394 139.702M761.571 209.165L766.765 236.755L785.591 255.581L815.129 265.319L835.578 256.337M761.571 209.165L770.985 184.496L787.863 171.836L815.129 166.318L831.034 172.81L855.379 197.479L860.897 227.666L849.86 250.063L835.578 256.337M761.571 209.165L774.555 191.637L792.408 181.574H819.998L839.474 194.558L848.887 213.384L847.588 238.702L835.578 256.337M754.755 238.702L749.886 213.384L757.676 184.496L774.555 166.318L797.277 157.23H823.244L849.86 171.836L866.415 194.558L873.556 217.604L867.573 237.729M754.755 238.702L774.555 260.775L800.198 273.109H828.113L853.106 260.775M754.755 238.702L764.493 261.424L782.345 274.083L804.742 279.926L825.516 278.303L853.106 260.775M853.106 260.775L854.46 258.827M867.573 237.729L866.415 241.624L854.46 258.827M867.573 237.729L881.021 243.571L893.031 252.984L898.649 258.827M854.46 258.827L875.179 268.889L889.136 278.303L892.707 276.193M898.649 258.827L901.146 261.424L896.277 274.083L892.707 276.193M898.649 258.827V222.797L887.838 195.207L862.195 162.748L831.034 146.194L797.277 139.702L759.624 144.571L727.489 167.941L706.391 204.296L703.145 236.755L708.338 268.889L722.945 294.857L749.886 320.5L785.591 330.887H821.946L862.844 317.254L878.749 299.726L892.707 276.193M-37.5735 330.237L-32.38 357.828L-13.5537 376.654L15.9842 386.392L36.4335 377.409M-37.5735 330.237L-28.1603 305.568L-11.2815 292.909L15.9842 287.391L31.8892 293.883L56.2336 318.552L61.7517 348.739L50.7155 371.136L36.4335 377.409M-37.5735 330.237L-24.5898 312.709L-6.73723 302.647H20.8531L40.3286 315.631L49.7418 334.457L48.4434 359.775L36.4335 377.409M-44.3899 359.775L-49.2588 334.457L-41.4686 305.568L-24.5898 287.391L-1.86835 278.303H24.099L50.7155 292.909L67.2697 315.631L74.4108 338.677L68.4277 358.801M-44.3899 359.775L-24.5898 381.847L1.05298 394.182H28.9679L53.9615 381.847M-44.3899 359.775L-34.6521 382.497L-16.7996 395.156L5.59727 400.998L26.3711 399.375L53.9615 381.847M53.9615 381.847L55.3148 379.9M68.4277 358.801L67.2697 362.697L55.3148 379.9M68.4277 358.801L81.8764 364.644L93.8863 374.057L99.5042 379.9M55.3148 379.9L76.0337 389.962L89.9912 399.375L93.5617 397.266M99.5042 379.9L102.001 382.497L97.1322 395.156L93.5617 397.266M99.5042 379.9V343.87L88.6928 316.28L63.05 283.821L31.8892 267.266L-1.86835 260.775L-39.521 265.644L-71.6556 289.014L-92.7541 325.368L-96 357.828L-90.8065 389.962L-76.1999 415.93L-49.2588 441.572L-13.5537 451.959H22.8006L63.6992 438.326L79.6042 420.798L93.5617 397.266" stroke="black" stroke-width="5.19347"/>
<path d="M1273.89 171.674L1279.09 199.264L1297.91 218.09L1327.45 227.828L1347.9 218.846L1359.91 201.211L1361.21 175.893L1351.8 157.067L1332.32 144.083H1304.73L1286.88 154.146L1273.89 171.674Z" fill="url(#paint7_linear_247_2)"/>
<path d="M1121.66 355.068L1126.85 382.658L1145.68 401.485L1175.22 411.223L1195.67 402.24L1207.68 384.606L1208.98 359.288L1199.56 340.462L1180.09 327.478H1152.5L1134.64 337.54L1121.66 355.068Z" fill="url(#paint8_linear_247_2)"/>
<path d="M970.401 560.21L975.594 587.801L994.42 606.627L1023.96 616.365L1044.41 607.382L1056.42 589.748L1057.72 564.43L1048.3 545.604L1028.83 532.62H1001.24L983.384 542.682L970.401 560.21Z" fill="url(#paint9_linear_247_2)"/>
<path d="M1364.46 498.213L1369.65 525.803L1388.48 544.63L1418.01 554.368L1438.46 545.385L1450.47 527.751L1451.77 502.433L1442.36 483.607L1422.88 470.623H1395.29L1377.44 480.685L1364.46 498.213Z" fill="url(#paint10_linear_247_2)"/>
<path d="M1522.21 308.165L1527.4 335.755L1546.23 354.581L1575.76 364.319L1596.21 355.337L1608.22 337.702L1609.52 312.384L1600.11 293.558L1580.63 280.574H1553.04L1535.19 290.637L1522.21 308.165Z" fill="url(#paint11_linear_247_2)"/>
<path d="M1583.88 256.23L1610.5 270.836L1627.05 293.558L1634.19 316.604L1628.21 336.729L1641.66 342.571L1653.67 351.984L1659.28 357.827V321.797L1648.47 294.207L1622.83 261.748L1591.67 245.194L1557.91 238.702L1520.26 243.571L1488.12 266.941L1467.03 303.296L1463.78 335.755L1468.97 367.889L1483.58 393.857L1510.52 419.5L1546.23 429.887H1582.58L1623.48 416.254L1639.38 398.726L1653.34 375.193L1649.77 377.303L1635.81 367.889L1615.1 357.827L1613.74 359.775L1586.15 377.303L1565.38 378.926L1542.98 373.083L1525.13 360.424L1515.39 337.702L1510.52 312.384L1518.31 283.496L1535.19 265.318L1557.91 256.23H1583.88Z" fill="white"/>
<path d="M1335.57 119.739L1362.18 134.346L1378.74 157.067L1385.88 180.113L1379.9 200.238L1393.34 206.08L1405.35 215.494L1410.97 221.336V185.306L1400.16 157.716L1374.52 125.257L1343.36 108.703L1309.6 102.211L1271.95 107.08L1239.81 130.45L1218.71 166.805L1215.47 199.264L1220.66 231.399L1235.27 257.366L1262.21 283.009L1297.91 293.396H1334.27L1375.17 279.763L1391.07 262.235L1405.03 238.702L1401.46 240.812L1387.5 231.399L1366.78 221.336L1365.43 223.284L1337.84 240.812L1317.06 242.435L1294.67 236.592L1276.82 223.933L1267.08 201.211L1262.21 175.893L1270 147.005L1286.88 128.827L1309.6 119.739H1335.57Z" fill="white"/>
<path d="M1183.33 303.133L1209.95 317.74L1226.5 340.462L1233.64 363.508L1227.66 383.632L1241.11 389.475L1253.12 398.888L1258.74 404.731V368.701L1247.93 341.111L1222.28 308.651L1191.12 292.097L1157.37 285.605L1119.71 290.474L1087.58 313.845L1066.48 350.199L1063.23 382.658L1068.43 414.793L1083.03 440.76L1109.98 466.403L1145.68 476.79H1182.03L1222.93 463.157L1238.84 445.629L1252.8 422.096L1249.23 424.206L1235.27 414.793L1214.55 404.731L1213.2 406.678L1185.61 424.206L1164.83 425.829L1142.43 419.987L1124.58 407.327L1114.84 384.606L1109.98 359.288L1117.77 330.399L1134.64 312.222L1157.37 303.133H1183.33Z" fill="white"/>
<path d="M1032.07 508.276L1058.69 522.882L1075.24 545.604L1082.38 568.65L1076.4 588.774L1089.85 594.617L1101.86 604.03L1107.48 609.873V573.843L1096.67 546.253L1071.02 513.794L1039.86 497.239L1006.11 490.748L968.453 495.616L936.319 518.987L915.22 555.341L911.974 587.801L917.168 619.935L931.774 645.903L958.715 671.545L994.42 681.932H1030.77L1071.67 668.299L1087.58 650.771L1101.54 627.238L1097.97 629.348L1084.01 619.935L1063.29 609.873L1061.94 611.82L1034.35 629.348L1013.57 630.971L991.175 625.129L973.322 612.47L963.584 589.748L958.715 564.43L966.506 535.541L983.384 517.364L1006.11 508.276H1032.07Z" fill="white"/>
<path d="M1373.87 473.544L1364.46 498.213L1377.44 480.685L1395.29 470.623H1422.88L1442.36 483.607L1451.77 502.433L1450.47 527.751L1438.46 545.385L1452.74 539.112L1463.78 516.715L1458.26 486.528L1433.92 461.859L1418.01 455.367L1390.75 460.885L1373.87 473.544Z" fill="white"/>
<path fill-rule="evenodd" clip-rule="evenodd" d="M1452.74 460.885L1426.13 446.278H1400.16L1377.44 455.367L1360.56 473.544L1352.77 502.433L1357.64 527.751L1377.44 549.823L1403.08 562.158H1431L1455.99 549.823L1457.34 547.876L1469.3 530.672L1470.46 526.777L1476.44 506.653L1469.3 483.607L1452.74 460.885ZM1369.65 525.803L1364.46 498.213L1373.87 473.544L1390.75 460.885L1418.01 455.367L1433.92 461.859L1458.26 486.528L1463.78 516.715L1452.74 539.112L1438.46 545.385L1418.01 554.368L1388.48 544.63L1369.65 525.803Z" fill="white"/>
<path d="M1470.46 526.777L1469.3 530.672L1457.34 547.876L1478.06 557.938L1492.02 567.351L1495.59 565.241L1499.16 563.132L1504.03 550.472L1501.53 547.876L1495.91 542.033L1483.91 532.62L1470.46 526.777Z" fill="white"/>
<path fill-rule="evenodd" clip-rule="evenodd" d="M1209.95 317.74L1183.33 303.133H1157.37L1134.64 312.222L1117.77 330.399L1109.98 359.288L1114.84 384.606L1134.64 406.678L1160.29 419.013H1188.2L1213.2 406.678L1214.55 404.731L1226.5 387.527L1227.66 383.632L1233.64 363.508L1226.5 340.462L1209.95 317.74ZM1126.85 382.658L1121.66 355.068L1131.07 330.399L1147.95 317.74L1175.22 312.222L1191.12 318.714L1215.47 343.383L1220.99 373.57L1209.95 395.967L1195.67 402.24L1175.22 411.223L1145.68 401.485L1126.85 382.658Z" fill="white"/>
<path d="M1131.07 330.399L1121.66 355.068L1134.64 337.54L1152.5 327.478H1180.09L1199.56 340.462L1208.98 359.288L1207.68 384.606L1195.67 402.24L1209.95 395.967L1220.99 373.57L1215.47 343.383L1191.12 318.714L1175.22 312.222L1147.95 317.74L1131.07 330.399Z" fill="white"/>
<path d="M1227.66 383.632L1226.5 387.527L1214.55 404.731L1235.27 414.793L1249.23 424.206L1252.8 422.096L1256.37 419.987L1261.24 407.327L1258.74 404.731L1253.12 398.888L1241.11 389.475L1227.66 383.632Z" fill="white"/>
<path d="M1379.9 200.238L1378.74 204.133L1366.78 221.336L1387.5 231.399L1401.46 240.812L1405.03 238.702L1408.6 236.592L1413.47 223.933L1410.97 221.336L1405.35 215.494L1393.34 206.08L1379.9 200.238Z" fill="white"/>
<path d="M1535.19 359.775L1515.39 337.702L1525.13 360.424L1542.98 373.083L1565.38 378.926L1586.15 377.303L1613.74 359.775L1588.75 372.109H1560.83L1535.19 359.775Z" fill="white"/>
<path d="M1286.88 223.284L1267.08 201.211L1276.82 223.933L1294.67 236.592L1317.06 242.435L1337.84 240.812L1365.43 223.284L1340.44 235.618H1312.52L1286.88 223.284Z" fill="white"/>
<path d="M1134.64 406.678L1114.84 384.606L1124.58 407.327L1142.43 419.987L1164.83 425.829L1185.61 424.206L1213.2 406.678L1188.2 419.013H1160.29L1134.64 406.678Z" fill="white"/>
<path d="M1377.44 549.823L1357.64 527.751L1367.38 550.472L1385.23 563.132L1407.63 568.974L1428.4 567.351L1455.99 549.823L1431 562.158H1403.08L1377.44 549.823Z" fill="white"/>
<path fill-rule="evenodd" clip-rule="evenodd" d="M1058.69 522.882L1032.07 508.276H1006.11L983.384 517.364L966.506 535.541L958.715 564.43L963.584 589.748L983.384 611.82L1009.03 624.155H1036.94L1061.94 611.82L1063.29 609.873L1075.24 592.669L1076.4 588.774L1082.38 568.65L1075.24 545.604L1058.69 522.882ZM975.594 587.801L970.401 560.21L979.814 535.541L996.693 522.882L1023.96 517.364L1039.86 523.856L1064.21 548.525L1069.73 578.712L1058.69 601.109L1044.41 607.382L1023.96 616.365L994.42 606.627L975.594 587.801Z" fill="white"/>
<path d="M1076.4 588.774L1075.24 592.669L1063.29 609.873L1084.01 619.935L1097.97 629.348L1101.54 627.238L1105.11 625.129L1109.98 612.47L1107.48 609.873L1101.86 604.03L1089.85 594.617L1076.4 588.774Z" fill="white"/>
<path d="M979.814 535.541L970.401 560.21L983.384 542.682L1001.24 532.62H1028.83L1048.3 545.604L1057.72 564.43L1056.42 589.748L1044.41 607.382L1058.69 601.109L1069.73 578.712L1064.21 548.525L1039.86 523.856L1023.96 517.364L996.693 522.882L979.814 535.541Z" fill="white"/>
<path d="M983.384 611.82L963.584 589.748L973.322 612.47L991.175 625.129L1013.57 630.971L1034.35 629.348L1061.94 611.82L1036.94 624.155H1009.03L983.384 611.82Z" fill="white"/>
<path fill-rule="evenodd" clip-rule="evenodd" d="M1362.18 134.346L1335.57 119.739H1309.6L1286.88 128.827L1270 147.005L1262.21 175.893L1267.08 201.211L1286.88 223.284L1312.52 235.618H1340.44L1365.43 223.284L1366.78 221.336L1378.74 204.133L1379.9 200.238L1385.88 180.113L1378.74 157.067L1362.18 134.346ZM1279.09 199.264L1273.89 171.674L1283.31 147.005L1300.19 134.346L1327.45 128.827L1343.36 135.319L1367.7 159.988L1373.22 190.175L1362.18 212.572L1347.9 218.846L1327.45 227.828L1297.91 218.09L1279.09 199.264Z" fill="white"/>
<path d="M1283.31 147.005L1273.89 171.674L1286.88 154.146L1304.73 144.083H1332.32L1351.8 157.067L1361.21 175.893L1359.91 201.211L1347.9 218.846L1362.18 212.572L1373.22 190.175L1367.7 159.988L1343.36 135.319L1327.45 128.827L1300.19 134.346L1283.31 147.005Z" fill="white"/>
<path d="M1121.66 355.068L1126.85 382.658L1145.68 401.485L1175.22 411.223L1195.67 402.24M1121.66 355.068L1131.07 330.399L1147.95 317.74L1175.22 312.222L1191.12 318.714L1215.47 343.383L1220.99 373.57L1209.95 395.967L1195.67 402.24M1121.66 355.068L1134.64 337.54L1152.5 327.478H1180.09L1199.56 340.462L1208.98 359.288L1207.68 384.606L1195.67 402.24M1114.84 384.606L1109.98 359.288L1117.77 330.399L1134.64 312.222L1157.37 303.133H1183.33L1209.95 317.74L1226.5 340.462L1233.64 363.508L1227.66 383.632M1114.84 384.606L1134.64 406.678L1160.29 419.013H1188.2L1213.2 406.678M1114.84 384.606L1124.58 407.327L1142.43 419.987L1164.83 425.829L1185.61 424.206L1213.2 406.678M1213.2 406.678L1214.55 404.731M1227.66 383.632L1226.5 387.527L1214.55 404.731M1227.66 383.632L1241.11 389.475L1253.12 398.888L1258.74 404.731M1214.55 404.731L1235.27 414.793L1249.23 424.206L1252.8 422.096M1258.74 404.731L1261.24 407.327L1256.37 419.987L1252.8 422.096M1258.74 404.731V368.701L1247.93 341.111L1222.28 308.651L1191.12 292.097L1157.37 285.605L1119.71 290.474L1087.58 313.845L1066.48 350.199L1063.23 382.658L1068.43 414.793L1083.03 440.76L1109.98 466.403L1145.68 476.79H1182.03L1222.93 463.157L1238.84 445.629L1252.8 422.096M970.401 560.21L975.594 587.801L994.42 606.627L1023.96 616.365L1044.41 607.382M970.401 560.21L979.814 535.541L996.693 522.882L1023.96 517.364L1039.86 523.856L1064.21 548.525L1069.73 578.712L1058.69 601.109L1044.41 607.382M970.401 560.21L983.384 542.682L1001.24 532.62H1028.83L1048.3 545.604L1057.72 564.43L1056.42 589.748L1044.41 607.382M963.584 589.748L958.715 564.43L966.506 535.541L983.384 517.364L1006.11 508.276H1032.07L1058.69 522.882L1075.24 545.604L1082.38 568.65L1076.4 588.774M963.584 589.748L983.384 611.82L1009.03 624.155H1036.94L1061.94 611.82M963.584 589.748L973.322 612.47L991.175 625.129L1013.57 630.971L1034.35 629.348L1061.94 611.82M1061.94 611.82L1063.29 609.873M1076.4 588.774L1075.24 592.669L1063.29 609.873M1076.4 588.774L1089.85 594.617L1101.86 604.03L1107.48 609.873M1063.29 609.873L1084.01 619.935L1097.97 629.348L1101.54 627.238M1107.48 609.873L1109.98 612.47L1105.11 625.129L1101.54 627.238M1107.48 609.873V573.843L1096.67 546.253L1071.02 513.794L1039.86 497.239L1006.11 490.748L968.453 495.616L936.319 518.987L915.22 555.341L911.974 587.801L917.168 619.935L931.774 645.903L958.715 671.545L994.42 681.932H1030.77L1071.67 668.299L1087.58 650.771L1101.54 627.238M1364.46 498.213L1369.65 525.803L1388.48 544.63L1418.01 554.368L1438.46 545.385M1364.46 498.213L1373.87 473.544L1390.75 460.885L1418.01 455.367L1433.92 461.859L1458.26 486.528L1463.78 516.715L1452.74 539.112L1438.46 545.385M1364.46 498.213L1377.44 480.685L1395.29 470.623H1422.88L1442.36 483.607L1451.77 502.433L1450.47 527.751L1438.46 545.385M1357.64 527.751L1352.77 502.433L1360.56 473.544L1377.44 455.367L1400.16 446.278H1426.13L1452.74 460.885L1469.3 483.607L1476.44 506.653L1470.46 526.777M1357.64 527.751L1377.44 549.823L1403.08 562.158H1431L1455.99 549.823M1357.64 527.751L1367.38 550.472L1385.23 563.132L1407.63 568.974L1428.4 567.351L1455.99 549.823M1455.99 549.823L1457.34 547.876M1470.46 526.777L1469.3 530.672L1457.34 547.876M1470.46 526.777L1483.91 532.62L1495.91 542.033L1501.53 547.876M1457.34 547.876L1478.06 557.938L1492.02 567.351L1495.59 565.241M1501.53 547.876L1504.03 550.472L1499.16 563.132L1495.59 565.241M1501.53 547.876V511.846L1490.72 484.256L1465.08 451.797L1433.92 435.242L1400.16 428.75L1362.51 433.619L1330.37 456.99L1309.27 493.344L1306.03 525.803L1311.22 557.938L1325.83 583.905L1352.77 609.548L1388.48 619.935H1424.83L1465.73 606.302L1481.63 588.774L1495.59 565.241M1273.89 171.674L1279.09 199.264L1297.91 218.09L1327.45 227.828L1347.9 218.846M1273.89 171.674L1283.31 147.005L1300.19 134.346L1327.45 128.827L1343.36 135.319L1367.7 159.988L1373.22 190.175L1362.18 212.572L1347.9 218.846M1273.89 171.674L1286.88 154.146L1304.73 144.083H1332.32L1351.8 157.067L1361.21 175.893L1359.91 201.211L1347.9 218.846M1267.08 201.211L1262.21 175.893L1270 147.005L1286.88 128.827L1309.6 119.739H1335.57L1362.18 134.346L1378.74 157.067L1385.88 180.113L1379.9 200.238M1267.08 201.211L1286.88 223.284L1312.52 235.618H1340.44L1365.43 223.284M1267.08 201.211L1276.82 223.933L1294.67 236.592L1317.06 242.435L1337.84 240.812L1365.43 223.284M1365.43 223.284L1366.78 221.336M1379.9 200.238L1378.74 204.133L1366.78 221.336M1379.9 200.238L1393.34 206.08L1405.35 215.494L1410.97 221.336M1366.78 221.336L1387.5 231.399L1401.46 240.812L1405.03 238.702M1410.97 221.336L1413.47 223.933L1408.6 236.592L1405.03 238.702M1410.97 221.336V185.306L1400.16 157.716L1374.52 125.257L1343.36 108.703L1309.6 102.211L1271.95 107.08L1239.81 130.45L1218.71 166.805L1215.47 199.264L1220.66 231.399L1235.27 257.366L1262.21 283.009L1297.91 293.396H1334.27L1375.17 279.763L1391.07 262.235L1405.03 238.702M1522.21 308.165L1527.4 335.755L1546.23 354.581L1575.76 364.319L1596.21 355.337M1522.21 308.165L1531.62 283.496L1548.5 270.836L1575.76 265.318L1591.67 271.81L1616.01 296.479L1621.53 326.666L1610.5 349.063L1596.21 355.337M1522.21 308.165L1535.19 290.637L1553.04 280.574H1580.63L1600.11 293.558L1609.52 312.384L1608.22 337.702L1596.21 355.337M1515.39 337.702L1510.52 312.384L1518.31 283.496L1535.19 265.318L1557.91 256.23H1583.88L1610.5 270.836L1627.05 293.558L1634.19 316.604L1628.21 336.729M1515.39 337.702L1535.19 359.775L1560.83 372.109H1588.75L1613.74 359.775M1515.39 337.702L1525.13 360.424L1542.98 373.083L1565.38 378.926L1586.15 377.303L1613.74 359.775M1613.74 359.775L1615.1 357.827M1628.21 336.729L1627.05 340.624L1615.1 357.827M1628.21 336.729L1641.66 342.571L1653.67 351.984L1659.28 357.827M1615.1 357.827L1635.81 367.889L1649.77 377.303L1653.34 375.193M1659.28 357.827L1661.78 360.424L1656.91 373.083L1653.34 375.193M1659.28 357.827V321.797L1648.47 294.207L1622.83 261.748L1591.67 245.194L1557.91 238.702L1520.26 243.571L1488.12 266.941L1467.03 303.296L1463.78 335.755L1468.97 367.889L1483.58 393.857L1510.52 419.5L1546.23 429.887H1582.58L1623.48 416.254L1639.38 398.726L1653.34 375.193" stroke="black" stroke-width="5.19347"/>
<defs>
<linearGradient id="paint0_linear_247_2" x1="402.573" y1="3.21094" x2="402.573" y2="582.932" gradientUnits="userSpaceOnUse">
<stop stop-color="#B19D77"/>
<stop offset="1" stop-color="#4B4233"/>
</linearGradient>
<linearGradient id="paint1_linear_247_2" x1="402.573" y1="3.21094" x2="402.573" y2="582.932" gradientUnits="userSpaceOnUse">
<stop stop-color="#B19D77"/>
<stop offset="1" stop-color="#4B4233"/>
</linearGradient>
<linearGradient id="paint2_linear_247_2" x1="402.573" y1="3.21094" x2="402.573" y2="582.932" gradientUnits="userSpaceOnUse">
<stop stop-color="#B19D77"/>
<stop offset="1" stop-color="#4B4233"/>
</linearGradient>
<linearGradient id="paint3_linear_247_2" x1="402.573" y1="3.21094" x2="402.573" y2="582.932" gradientUnits="userSpaceOnUse">
<stop stop-color="#B19D77"/>
<stop offset="1" stop-color="#4B4233"/>
</linearGradient>
<linearGradient id="paint4_linear_247_2" x1="402.573" y1="3.21094" x2="402.573" y2="582.932" gradientUnits="userSpaceOnUse">
<stop stop-color="#B19D77"/>
<stop offset="1" stop-color="#4B4233"/>
</linearGradient>
<linearGradient id="paint5_linear_247_2" x1="402.573" y1="3.21094" x2="402.573" y2="582.932" gradientUnits="userSpaceOnUse">
<stop stop-color="#B19D77"/>
<stop offset="1" stop-color="#4B4233"/>
</linearGradient>
<linearGradient id="paint6_linear_247_2" x1="402.573" y1="3.21094" x2="402.573" y2="582.932" gradientUnits="userSpaceOnUse">
<stop stop-color="#B19D77"/>
<stop offset="1" stop-color="#4B4233"/>
</linearGradient>
<linearGradient id="paint7_linear_247_2" x1="1286.88" y1="102.211" x2="1286.88" y2="681.932" gradientUnits="userSpaceOnUse">
<stop stop-color="#B19D77"/>
<stop offset="1" stop-color="#4B4233"/>
</linearGradient>
<linearGradient id="paint8_linear_247_2" x1="1286.88" y1="102.211" x2="1286.88" y2="681.932" gradientUnits="userSpaceOnUse">
<stop stop-color="#B19D77"/>
<stop offset="1" stop-color="#4B4233"/>
</linearGradient>
<linearGradient id="paint9_linear_247_2" x1="1286.88" y1="102.211" x2="1286.88" y2="681.932" gradientUnits="userSpaceOnUse">
<stop stop-color="#B19D77"/>
<stop offset="1" stop-color="#4B4233"/>
</linearGradient>
<linearGradient id="paint10_linear_247_2" x1="1286.88" y1="102.211" x2="1286.88" y2="681.932" gradientUnits="userSpaceOnUse">
<stop stop-color="#B19D77"/>
<stop offset="1" stop-color="#4B4233"/>
</linearGradient>
<linearGradient id="paint11_linear_247_2" x1="1286.88" y1="102.211" x2="1286.88" y2="681.932" gradientUnits="userSpaceOnUse">
<stop stop-color="#B19D77"/>
<stop offset="1" stop-color="#4B4233"/>
</linearGradient>
</defs>
</svg>
