<svg width="450" height="358" viewBox="0 0 450 358" fill="none" xmlns="http://www.w3.org/2000/svg">
<path d="M161.316 102.187L173.092 110.687L189.358 104.036L206.435 95.3989L238.364 61.2535L267.044 45.725L319.89 33.5571L360.561 13.1152L406.157 3.99692L430.917 15.6289L438.964 31.9955L432.633 42.1624L412.318 40.5245L394.718 45.5L381.718 49.6014L409.763 49.6014L423.532 49.6014L437.353 53.9991L445.369 65.9217L445.612 81.5582L430.083 90.4712L423.265 93.7969L426.667 103.141L423.532 117.019L409.528 130.667L410.304 150.42L396.562 172.49L375.269 178.502L347.781 183.41L323.675 192.833L307.15 198.372L274.816 208.687L285.816 256.687L-18.2821 353.5L-25.2819 150.421L161.316 102.187Z" fill="white"/>
<path d="M161.316 102.187L267.044 178.502L274.816 208.687M161.316 102.187L-25.2819 150.421L-18.2821 353.5L285.816 256.687L274.816 208.687M161.316 102.187L173.092 110.687L189.358 104.036L206.435 95.3989L238.364 61.2535L267.044 45.725L319.89 33.5571L279.218 53.9991L360.561 13.1152L406.157 3.99692L430.917 15.6289L438.964 31.9955L432.633 42.1624L412.318 40.5245L394.718 45.5L381.718 49.6014L409.763 49.6014L423.532 49.6014L437.353 53.9991L445.369 65.9217L445.612 81.5582L430.083 90.4712L423.265 93.7969M423.265 93.7969L426.667 103.141L423.532 117.019L409.528 130.667M423.265 93.7969L396.562 93.7969M409.528 130.667L391.801 137M409.528 130.667L410.304 150.42L396.562 172.49L375.269 178.502L347.781 183.41L323.675 192.833L307.15 198.372L274.816 208.687" stroke="black" stroke-width="8" stroke-linejoin="round"/>
</svg>
