<svg width="573" height="591" viewBox="0 0 573 591" fill="none" xmlns="http://www.w3.org/2000/svg">
<path d="M66.1192 156.098L92.9053 139.701L99.6975 127.128L96.5423 112.867L86.9104 112.605L74.6993 116.332L69.2544 117.994L58.4206 121.301L35.5584 137.429L13.5611 146.185L-28.872 177.071L-10.635 259.5L36.7478 221.236L51.8011 183.799L45.6953 173.781L53.8808 162.097L66.1192 156.098Z" fill="white"/>
<path d="M-28.872 177.071L13.5611 146.185L25.8609 139.575L39.2434 127.04L61.2541 108.879L63.0251 107.418L79.1447 95.7293L82.6193 93.2098L98.9172 80.3293L100.255 72.853L95.762 66.0684L85.434 66.5804L80.0774 66.8459L44.9198 87.7884L18.7302 107.345L-6.56854 122.815L-28.872 177.071Z" fill="white"/>
<path d="M542.449 101.273L528.855 170.998L495.715 271.376L469.217 332.059L449.218 391.5L460.095 362.5L471.867 344.039L503.181 283.486L535.923 202.943L568.069 81.843L556.576 71.82L545.238 69.8408L542.449 101.273Z" fill="white"/>
<path d="M35.5584 137.429L58.4206 121.301L69.2544 117.994L61.2541 108.879L39.2434 127.04L25.8609 139.575L13.5611 146.185L35.5584 137.429Z" fill="white"/>
<path d="M546.132 59.7701L98.8612 4.34977L85.434 66.5804L95.762 66.0684L100.255 72.853L98.9172 80.3293L82.6193 93.2098L79.1447 95.7293L74.6993 116.332L86.9104 112.605L96.5423 112.867L99.6975 127.128L92.9053 139.701L66.1192 156.098L65.0346 161.125L47.2531 236.264L38.8582 268.638L30.7889 291.665L-28.8719 530L184.218 561L375.718 587L429.718 460L449.218 391.5L469.217 332.059L495.715 271.376L528.855 170.998L542.449 101.273L545.238 69.8408L546.132 59.7701Z" fill="white"/>
<path d="M38.8582 268.638L30.7889 291.665L-28.8719 530L184.218 561L375.718 587L429.718 460L449.218 391.5M38.8582 268.638L47.2531 236.264L65.0346 161.125L66.1192 156.098M38.8582 268.638L66.1192 156.098M66.1192 156.098L92.9053 139.701L99.6975 127.128L96.5423 112.867L86.9104 112.605L74.6993 116.332M66.1192 156.098L53.8808 162.097L45.6953 173.781L51.8011 183.799L36.7478 221.236L-10.635 259.5L-28.872 177.071M13.5611 146.185L35.5584 137.429L58.4206 121.301L69.2544 117.994M13.5611 146.185L-28.872 177.071M13.5611 146.185L25.8609 139.575L39.2434 127.04L61.2541 108.879M-28.872 177.071L-6.56854 122.815L18.7302 107.345L44.9198 87.7884L80.0774 66.8459L85.434 66.5804M74.6993 116.332L79.1447 95.7293M74.6993 116.332L69.2544 117.994M79.1447 95.7293L82.6193 93.2098L98.9172 80.3293L100.255 72.853L95.762 66.0684L85.434 66.5804M79.1447 95.7293L63.0251 107.418L61.2541 108.879M85.434 66.5804L98.8612 4.34977L546.132 59.7701L545.238 69.8408M61.2541 108.879L69.2544 117.994M545.238 69.8408L542.449 101.273L528.855 170.998L495.715 271.376L469.217 332.059L449.218 391.5M545.238 69.8408L556.576 71.82L568.069 81.843L535.923 202.943L503.181 283.486L471.867 344.039L460.095 362.5L449.218 391.5" stroke="black" stroke-width="8" stroke-linejoin="round"/>
</svg>
