<svg width="621" height="548" viewBox="0 0 621 548" fill="none" xmlns="http://www.w3.org/2000/svg">
<path d="M11.6687 226.737L41.1636 284.547L44.7029 286.316L175.922 233.815L211.643 298.114L252.346 385.419L295.999 468.594L314.873 499.944L340.829 525.31L382.711 543.596L616.31 440.365L573.041 415.751L534.906 354.744L522.143 329.379L488.304 262.13L428.725 138.252L385.073 63.3356L376.601 55.1857L338.471 18.5035L314.875 6.70557H290.099L45.8828 106.398L17.5677 122.325L4.00012 166.105L11.6687 226.737Z" fill="white"/>
<path d="M45.8828 106.398L17.5677 122.325L4.00014 166.105L11.6687 226.737L41.1636 284.546L44.7029 286.316L175.922 233.815M45.8828 106.398L77.7371 111.707L107.201 135.383L110.771 138.252L158.553 202.551L175.922 233.815M45.8828 106.398L290.099 6.70557H314.875L338.471 18.5035L376.601 55.1857L385.073 63.3356L428.725 138.252L488.304 262.13L522.143 329.379L534.906 354.744L573.041 415.751L616.31 440.365L382.711 543.596L340.829 525.31L314.873 499.944L295.999 468.594L252.346 385.419L211.643 298.114L175.922 233.815" stroke="black" stroke-width="8" stroke-linejoin="round"/>
<path d="M256.883 58.6212C253.51 60.0285 249.572 58.6878 246.454 55.2244L237.854 45.6715L235.081 46.8288L231.295 42.6233L234.136 41.4374L229.888 36.7181L230.826 31.7711L238.056 39.8016L242.507 37.9443L246.293 42.1498L241.842 44.0071L250.391 53.5029C251.247 54.4544 252.36 54.8276 253.661 54.2847C255.031 53.7132 255.664 52.559 255.664 52.559L259.45 56.7645C259.45 56.7645 258.594 57.9069 256.883 58.6212Z" fill="black"/>
<path d="M237.717 77.562L213.099 50.2165L217.327 48.4521L219.04 50.355C218.765 48.0614 220.065 46.7595 221.88 46.0023C226.553 44.0521 233.352 47.6024 238.08 52.8545C242.825 58.1257 244.369 63.8429 239.696 65.793C237.848 66.5645 235.4 66.6962 232.728 65.5597L241.945 75.7976L237.717 77.562ZM234.798 61.9471C237.554 60.797 236.713 57.8231 233.835 54.6261C230.957 51.4291 227.343 49.4554 224.587 50.6055C221.78 51.777 222.792 54.8366 225.67 58.0336C228.548 61.2305 231.991 63.1187 234.798 61.9471Z" fill="black"/>
<path d="M200.498 50.5805L196.644 46.2988L201.026 44.4701L204.88 48.7517L200.498 50.5805ZM220.919 73.1067L203.804 54.0962L207.947 52.3674L225.061 71.378L220.919 73.1067Z" fill="black"/>
<path d="M209.964 77.992C204.264 80.3708 197.328 77.0085 192.754 71.9276C188.265 66.9419 186.533 60.9631 192.113 58.6343C198.361 56.0269 204.595 60.1793 209.015 65.089C209.786 65.9453 210.18 66.5924 210.18 66.5924L198.438 71.4928C200.819 73.7192 203.559 74.7224 206.041 73.6866C207.906 72.9079 208.796 72.0654 208.744 70.15L214.138 71.7472C214.277 74.9617 212.805 76.8062 209.964 77.992ZM195.422 68.1436L203.194 64.9005C200.607 62.4458 198.107 61.4996 195.625 62.5354C193.314 63.4997 193.692 65.6981 195.422 68.1436Z" fill="black"/>
<path d="M192.812 85.3586C187.232 87.6874 180.21 83.9944 175.671 78.9516C171.182 73.9658 169.45 67.987 175.03 65.6582C178.436 64.2367 183.059 65.2655 187.41 68.1098L184.997 71.4726C182.891 69.8387 180.682 69.3207 178.97 70.035C176.094 71.2351 177.346 74.3517 179.899 77.1871C182.503 80.0796 185.945 82.2295 188.855 81.0151C190.532 80.315 190.857 78.6874 189.709 76.7058L194.931 76.7256C196.987 80.7365 196.219 83.937 192.812 85.3586Z" fill="black"/>
<path d="M174.532 92.7791C168.832 95.1579 161.896 91.7956 157.322 86.7147C152.833 81.729 151.101 75.7502 156.681 73.4214C162.929 70.814 169.163 74.9664 173.583 79.8761C174.354 80.7324 174.748 81.3795 174.748 81.3795L163.006 86.2799C165.387 88.5063 168.127 89.5095 170.609 88.4737C172.474 87.695 173.364 86.8525 173.312 84.9371L178.706 86.5343C178.845 89.7488 177.373 91.5933 174.532 92.7791ZM159.991 82.9307L167.762 79.6876C165.175 77.2329 162.675 76.2867 160.193 77.3225C157.882 78.2868 158.26 80.4853 159.991 82.9307Z" fill="black"/>
<path d="M153.117 101.401L136.003 82.3909L140.059 80.6979L142.235 83.1147C141.669 80.6546 142.473 79.2981 143.911 78.698C145.023 78.2337 146.821 77.9809 148.653 78.4467L150.179 83.0455C149.272 82.796 148.621 82.8057 147.714 83.1843C145.352 84.1701 146.158 87.5248 149.208 90.912L157.14 99.7227L153.117 101.401Z" fill="black"/>
<path d="M230.635 104.901L218.341 83.5801L221.788 82.172L228.479 93.7771L229.415 93.3947L229.618 86.6651L233.632 85.0253L232.848 92.5709C233.926 92.1306 235.719 93.265 236.599 93.9699L243.059 99.8255L238.961 101.5L234.177 96.8822C233.371 96.0914 232.402 95.5352 231.352 95.964L230.048 96.497L234.082 103.493L230.635 104.901Z" fill="black"/>
<path d="M221.45 108.878C216.727 110.807 212.29 108.158 209.964 104.123C207.681 100.164 207.649 95.3978 212.272 93.5088C217.449 91.3938 221.2 94.6782 223.448 98.5768C223.84 99.2567 223.997 99.7715 223.997 99.7715L214.268 103.747C215.566 105.512 217.387 106.3 219.444 105.459C220.989 104.828 221.825 104.15 222.188 102.621L225.851 103.868C225.281 106.435 223.804 107.916 221.45 108.878ZM212.734 101.087L219.173 98.4563C217.77 96.5091 216.115 95.7663 214.059 96.6065C212.144 97.3887 211.964 99.1427 212.734 101.087Z" fill="black"/>
<path d="M207.616 114.305L204.297 108.548C204.109 110.38 202.955 111.692 201.423 112.317C197.693 113.841 194.271 111.188 192.38 107.909L189.566 103.028L193.083 101.591L195.793 106.291C196.864 108.149 198.12 109.354 199.921 108.618C201.85 107.83 202.511 105.451 201.421 103.562L198.912 99.2098L202.43 97.7728L211.134 112.868L207.616 114.305Z" fill="black"/>
<path d="M191.02 211.763L342.529 146.314" stroke="black" stroke-width="8" stroke-linejoin="round"/>
<path d="M228.267 297.432L379.788 232.012" stroke="black" stroke-width="8" stroke-linejoin="round"/>
<path d="M256.58 357.038L408.101 291.618" stroke="black" stroke-width="8" stroke-linejoin="round"/>
<path d="M506.659 476.238L506.148 474.294L502.165 476.123L502.002 475.501L504.796 468.522L505.845 468.04L507.091 472.782L508.463 472.152L508.716 473.115L507.344 473.745L507.854 475.689L506.659 476.238ZM503.419 474.468L505.895 473.331L505.082 470.234L503.419 474.468Z" fill="black"/>
<path d="M495.819 481.215L495.582 480.311C496.189 479.577 497.346 478.1 498.051 476.83C498.726 475.573 499.157 474.562 498.913 473.631C498.705 472.841 498.075 472.578 497.167 472.995C496.172 473.452 495.818 474.446 496.031 475.489L494.82 475.954C494.42 474.432 495.198 472.814 496.918 472.024C498.498 471.298 499.799 471.696 500.16 473.071C500.451 474.18 499.869 475.631 498.98 477.167C498.294 478.356 497.814 478.946 497.425 479.416L501.774 477.419L502.023 478.366L495.819 481.215Z" fill="black"/>
<path d="M491.914 483.13C489.394 484.287 487.989 482.397 487.549 480.724C487.107 479.041 487.306 476.414 489.758 475.288C491.996 474.26 493.603 475.772 494.118 477.732C494.627 479.67 494.085 482.133 491.914 483.13ZM491.614 482.145C493.096 481.465 493.171 479.538 492.841 478.282C492.501 476.988 491.547 475.619 490.028 476.316C488.503 477.016 488.399 478.884 488.739 480.178C489.077 481.466 490.04 482.868 491.614 482.145Z" fill="black"/>
<path d="M481.51 487.786L481.273 486.882C481.88 486.149 483.036 484.671 483.741 483.401C484.416 482.145 484.848 481.134 484.603 480.203C484.396 479.412 483.766 479.149 482.857 479.567C481.863 480.023 481.509 481.017 481.721 482.06L480.511 482.525C480.111 481.004 480.889 479.385 482.609 478.595C484.189 477.869 485.489 478.267 485.85 479.642C486.142 480.752 485.559 482.202 484.671 483.738C483.985 484.927 483.505 485.518 483.115 485.987L487.464 483.99L487.713 484.938L481.51 487.786Z" fill="black"/>
<path d="M479.223 488.837L478.904 487.625L480.24 487.011L480.559 488.224L479.223 488.837Z" fill="black"/>
<path d="M473.654 491.394L474.815 487.827C474.658 487.93 474.491 488.025 474.308 488.109C472.674 488.859 471.062 488.423 470.685 486.988C470.323 485.608 471.249 483.799 472.981 483.004C474.628 482.248 476.254 482.793 476.631 484.227C476.763 484.731 476.723 485.253 476.548 485.758L475.008 490.772L473.654 491.394ZM474.075 487.221C475.069 486.764 475.684 485.669 475.452 484.787C475.22 483.905 474.225 483.549 473.23 484.005C472.242 484.459 471.628 485.554 471.86 486.437C472.091 487.319 473.087 487.675 474.075 487.221Z" fill="black"/>
<path d="M468.003 494.11C465.484 495.267 464.079 493.377 463.639 491.704C463.197 490.02 463.395 487.394 465.848 486.268C468.086 485.24 469.693 486.752 470.208 488.712C470.717 490.65 470.175 493.113 468.003 494.11ZM467.704 493.125C469.186 492.445 469.261 490.518 468.931 489.262C468.591 487.968 467.637 486.599 466.118 487.296C464.593 487.996 464.489 489.864 464.829 491.158C465.167 492.446 466.13 493.848 467.704 493.125Z" fill="black"/>
<path d="M462.29 496.612L461.971 495.399L463.307 494.786L463.626 495.999L462.29 496.612Z" fill="black"/>
<path d="M458.104 498.656C456.457 499.412 454.86 499.266 454.44 497.669L455.567 497.067C455.819 498.025 456.83 498.155 457.849 497.687C458.825 497.239 459.609 496.345 459.37 495.436C459.132 494.532 458.219 494.466 457.244 494.914L456.53 495.241L456.28 494.289L456.993 493.961C457.78 493.6 458.19 492.975 458.004 492.266C457.813 491.54 457.057 491.42 456.27 491.782C455.447 492.16 454.936 492.922 455.123 493.685L453.972 494.117C453.618 492.769 454.584 491.452 456.011 490.796C457.39 490.163 458.8 490.353 459.137 491.636C459.306 492.28 459.133 493.027 458.654 493.647C459.681 493.576 460.274 494.117 460.516 494.934C460.926 496.493 459.744 497.902 458.104 498.656Z" fill="black"/>
<path d="M448.121 503.119L447.884 502.215C448.491 501.481 449.647 500.004 450.353 498.733C451.027 497.477 451.459 496.466 451.214 495.535C451.007 494.745 450.377 494.482 449.468 494.899C448.474 495.356 448.12 496.349 448.332 497.392L447.122 497.857C446.722 496.336 447.5 494.717 449.22 493.927C450.8 493.202 452.1 493.6 452.462 494.975C452.753 496.084 452.17 497.535 451.282 499.071C450.596 500.259 450.116 500.85 449.727 501.32L454.076 499.323L454.324 500.27L448.121 503.119Z" fill="black"/>
</svg>
