<svg width="212" height="124" viewBox="0 0 212 124" fill="none" xmlns="http://www.w3.org/2000/svg">
<path d="M138.876 9.53144L137.362 4.18279L117.706 9.02749L90.8191 20.6317L60.0819 25.1578L28.4295 37.3622L10.9645 39.9724L12.3993 45.0395L13.8739 50.2474L15.3087 55.3146L16.7434 60.3817L18.1782 65.4489L19.8566 71.3764L39.9985 66.8505L71.2696 54.222L107.521 48.0602L132.977 38.1927L146.254 35.5869L144.655 29.9408L143.22 24.8737L141.786 19.8065L140.351 14.7394L138.876 9.53144Z" fill="white"/>
<path d="M154.981 33.1159L153.382 27.4698L144.655 29.9408L146.254 35.5869L154.981 33.1159Z" fill="white"/>
<path d="M153.382 27.4698L151.947 22.4027L143.22 24.8737L144.655 29.9408L153.382 27.4698Z" fill="white"/>
<path d="M151.947 22.4027L150.512 17.3355L141.786 19.8065L143.22 24.8737L151.947 22.4027Z" fill="white"/>
<path d="M150.512 17.3355L149.078 12.2684L140.351 14.7394L141.786 19.8065L150.512 17.3355Z" fill="white"/>
<path d="M149.078 12.2684L147.603 7.06045L138.876 9.53144L140.351 14.7394L149.078 12.2684Z" fill="white"/>
<path d="M146.089 1.71179L140.703 3.23669L137.362 4.18279L138.876 9.53144L147.603 7.06045L146.089 1.71179Z" fill="white"/>
<path d="M11.1298 73.8474L19.8566 71.3764L18.1782 65.4489L9.45144 67.9199L11.1298 73.8474Z" fill="white"/>
<path d="M16.7434 60.3817L8.01667 62.8527L9.45144 67.9199L18.1782 65.4489L16.7434 60.3817Z" fill="white"/>
<path d="M15.3087 55.3146L6.5819 57.7856L8.01667 62.8527L16.7434 60.3817L15.3087 55.3146Z" fill="white"/>
<path d="M13.8739 50.2474L5.14713 52.7184L6.5819 57.7856L15.3087 55.3146L13.8739 50.2474Z" fill="white"/>
<path d="M12.3993 45.0395L3.6725 47.5105L5.14713 52.7184L13.8739 50.2474L12.3993 45.0395Z" fill="white"/>
<path d="M10.9645 39.9724L2.23773 42.4433L3.6725 47.5105L12.3993 45.0395L10.9645 39.9724Z" fill="white"/>
<path d="M146.089 1.71179L140.703 3.23668L137.362 4.18278M146.089 1.71179L154.981 33.1159M146.089 1.71179L147.603 7.06045M154.981 33.1159L146.254 35.5869M154.981 33.1159L153.382 27.4698M10.9645 39.9723L2.23773 42.4433L3.6725 47.5105M10.9645 39.9723L12.3993 45.0395M10.9645 39.9723L28.4295 37.3622L60.0819 25.1578L90.8191 20.6317L117.706 9.02749L137.362 4.18278M19.8566 71.3764L11.1298 73.8474L9.45144 67.9199M19.8566 71.3764L18.1782 65.4489M19.8566 71.3764L39.9985 66.8505L71.2696 54.222L107.521 48.0602L132.977 38.1927L146.254 35.5869M137.362 4.18278L146.254 35.5869M137.362 4.18278L138.876 9.53144M146.254 35.5869L144.655 29.9408M3.6725 47.5105L12.3993 45.0395M3.6725 47.5105L5.14713 52.7184M12.3993 45.0395L13.8739 50.2474M13.8739 50.2474L5.14713 52.7184M13.8739 50.2474L15.3087 55.3146M5.14713 52.7184L6.5819 57.7856M6.5819 57.7856L15.3087 55.3146M6.5819 57.7856L8.01667 62.8527M15.3087 55.3146L16.7434 60.3817M8.01667 62.8527L16.7434 60.3817M8.01667 62.8527L9.45144 67.9199M16.7434 60.3817L18.1782 65.4489M9.45144 67.9199L18.1782 65.4489M138.876 9.53144L147.603 7.06045M138.876 9.53144L140.351 14.7394M147.603 7.06045L149.078 12.2684M149.078 12.2684L140.351 14.7394M149.078 12.2684L150.512 17.3355M140.351 14.7394L141.786 19.8065M141.786 19.8065L150.512 17.3355M141.786 19.8065L143.22 24.8737M150.512 17.3355L151.947 22.4027M143.22 24.8737L151.947 22.4027M143.22 24.8737L144.655 29.9408M151.947 22.4027L153.382 27.4698M144.655 29.9408L153.382 27.4698" stroke="black" stroke-width="2.54748" stroke-linejoin="round"/>
<path d="M103.084 44.2304L95.1294 27.6891L97.9726 26.3218L98.5262 27.4729C98.8918 25.9932 99.9399 25.0782 101.16 24.4914C104.291 22.9857 107.414 24.9419 108.942 28.119C110.476 31.3075 110.048 34.9571 106.917 36.4628C105.662 37.0662 104.231 37.2727 102.949 36.6702L105.927 42.8631L103.084 44.2304ZM104.969 34.2105C106.823 33.3193 107.017 31.4256 106.088 29.4918C105.158 27.5579 103.523 26.4587 101.67 27.35C99.7824 28.2578 99.6668 30.1984 100.597 32.1322C101.527 34.0661 103.082 35.1184 104.969 34.2105Z" fill="black"/>
<path d="M91.4539 41.1191C89.2962 42.2298 86.607 41.8615 85.4553 39.6242C84.1167 37.0236 85.8315 35.164 88.364 33.8604L91.3167 32.3405C90.5743 30.8982 89.4139 30.3463 87.7672 31.1939C86.6202 31.7844 86.041 33.0593 86.0015 34.0709L83.0999 33.6251C83.4458 31.4503 84.4665 29.8331 86.6129 28.7282C89.7019 27.1382 92.4893 28.088 93.9157 30.859L97.4582 37.7411L95.2891 38.8577L94.1579 37.3857C93.912 39.308 92.9644 40.3416 91.4539 41.1191ZM90.7608 38.5166C92.3507 37.6982 93.0309 35.7822 92.3456 34.3393L89.5632 35.7715C88.3026 36.4204 87.9262 37.4473 88.2945 38.1628C88.6803 38.9123 89.6932 39.0661 90.7608 38.5166Z" fill="black"/>
<path d="M70.145 45.1794L74.1393 38.5033L69.4177 32.4401L73.2051 32.2238L76.0843 36.2686L78.4844 31.9224L82.2973 31.7047L78.271 38.2675L83.0246 44.4441L79.2118 44.6617L76.3275 40.5278L73.9324 44.9632L70.145 45.1794Z" fill="black"/>
<path d="M63.4302 48.9382C61.0835 49.5567 58.5373 48.6163 57.896 46.1832C57.1504 43.3548 59.2264 41.9094 61.9806 41.1834L65.1919 40.337C64.7784 38.7684 63.7646 37.9789 61.9737 38.451C60.7263 38.7798 59.8854 39.8996 59.6284 40.8788L56.8916 39.817C57.6989 37.7681 59.0448 36.4095 61.3791 35.7942C64.7386 34.9087 67.2551 36.4381 68.0495 39.4517L70.0223 46.9364L67.6633 47.5582L66.8766 45.8767C66.2213 47.7005 65.0729 48.5052 63.4302 48.9382ZM63.3154 46.2474C65.0445 45.7916 66.1224 44.0677 65.7649 42.5108L62.7389 43.3084C61.3679 43.6697 60.7786 44.5912 60.9837 45.3693C61.1986 46.1845 62.1544 46.5534 63.3154 46.2474Z" fill="black"/>
<path d="M53.5968 51.6297C49.7858 53.3074 46.6484 51.1577 45.2846 48.0598C43.9363 44.997 44.4309 41.2066 48.2419 39.5289C50.5683 38.5048 52.9852 39.0179 54.7896 40.7076L52.5524 42.9485C51.7427 41.9652 50.5946 41.7031 49.4255 42.2177C47.4616 43.0823 47.4053 45.0469 48.1721 46.7887C48.9544 48.5656 50.4076 49.8378 52.3949 48.963C53.5406 48.4586 54.1357 47.4012 53.9676 46.1633L56.9834 46.008C57.169 48.522 55.9231 50.6056 53.5968 51.6297Z" fill="black"/>
<path d="M193.507 55.977L193.578 50.4185L173.356 49.4662L144.279 52.935L113.525 48.5223L79.7078 51.2095L62.2225 48.739L62.1552 54.0049L62.086 59.4171L62.0186 64.6831L61.9513 69.949L61.884 75.2149L61.8052 81.375L82.4021 82.7712L115.974 79.5689L152.48 83.9836L179.692 81.7724L193.161 83.0545L193.236 77.187L193.303 71.9211L193.371 66.6551L193.438 61.3892L193.507 55.977Z" fill="white"/>
<path d="M202.23 83.1705L202.305 77.303L193.236 77.187L193.161 83.0545L202.23 83.1705Z" fill="white"/>
<path d="M202.305 77.303L202.373 72.037L193.303 71.9211L193.236 77.187L202.305 77.303Z" fill="white"/>
<path d="M202.373 72.037L202.44 66.7711L193.371 66.6551L193.303 71.9211L202.373 72.037Z" fill="white"/>
<path d="M202.44 66.7711L202.507 61.5052L193.438 61.3892L193.371 66.6551L202.44 66.7711Z" fill="white"/>
<path d="M202.507 61.5052L202.576 56.0929L193.507 55.977L193.438 61.3892L202.507 61.5052Z" fill="white"/>
<path d="M202.647 50.5345L197.051 50.4629L193.578 50.4185L193.507 55.977L202.576 56.0929L202.647 50.5345Z" fill="white"/>
<path d="M52.7361 81.259L61.8052 81.375L61.884 75.2149L52.8149 75.099L52.7361 81.259Z" fill="white"/>
<path d="M61.9513 69.949L52.8822 69.833L52.8149 75.099L61.884 75.2149L61.9513 69.949Z" fill="white"/>
<path d="M62.0186 64.6831L52.9495 64.5671L52.8822 69.833L61.9513 69.949L62.0186 64.6831Z" fill="white"/>
<path d="M62.086 59.4171L53.0169 59.3012L52.9495 64.5671L62.0186 64.6831L62.086 59.4171Z" fill="white"/>
<path d="M62.1552 54.0049L53.0861 53.8889L53.0169 59.3012L62.086 59.4171L62.1552 54.0049Z" fill="white"/>
<path d="M62.2225 48.739L53.1534 48.623L53.0861 53.8889L62.1552 54.0049L62.2225 48.739Z" fill="white"/>
<path d="M202.647 50.5345L197.051 50.4629L193.578 50.4185M202.647 50.5345L202.23 83.1705M202.647 50.5345L202.576 56.0929M202.23 83.1705L193.161 83.0545M202.23 83.1705L202.305 77.303M62.2225 48.739L53.1534 48.623L53.0861 53.8889M62.2225 48.739L62.1552 54.0049M62.2225 48.739L79.7078 51.2095L113.525 48.5223L144.279 52.935L173.356 49.4662L193.578 50.4185M61.8052 81.375L52.7361 81.259L52.8149 75.099M61.8052 81.375L61.884 75.2149M61.8052 81.375L82.4021 82.7712L115.974 79.5689L152.48 83.9836L179.692 81.7724L193.161 83.0545M193.578 50.4185L193.161 83.0545M193.578 50.4185L193.507 55.977M193.161 83.0545L193.236 77.187M53.0861 53.8889L62.1552 54.0049M53.0861 53.8889L53.0169 59.3012M62.1552 54.0049L62.086 59.4171M62.086 59.4171L53.0169 59.3012M62.086 59.4171L62.0186 64.6831M53.0169 59.3012L52.9495 64.5671M52.9495 64.5671L62.0186 64.6831M52.9495 64.5671L52.8822 69.833M62.0186 64.6831L61.9513 69.949M52.8822 69.833L61.9513 69.949M52.8822 69.833L52.8149 75.099M61.9513 69.949L61.884 75.2149M52.8149 75.099L61.884 75.2149M193.507 55.977L202.576 56.0929M193.507 55.977L193.438 61.3892M202.576 56.0929L202.507 61.5052M202.507 61.5052L193.438 61.3892M202.507 61.5052L202.44 66.7711M193.438 61.3892L193.371 66.6551M193.371 66.6551L202.44 66.7711M193.371 66.6551L193.303 71.9211M202.44 66.7711L202.373 72.037M193.303 71.9211L202.373 72.037M193.303 71.9211L193.236 77.187M202.373 72.037L202.305 77.303M193.236 77.187L202.305 77.303" stroke="black" stroke-width="2.54748" stroke-linejoin="round"/>
<path d="M149.317 79.049L146.401 60.9275L149.516 60.4264L149.719 61.6874C150.491 60.373 151.756 59.7943 153.093 59.5792C156.523 59.0273 158.96 61.7918 159.52 65.2724C160.082 68.7655 158.633 72.1424 155.203 72.6943C153.829 72.9154 152.398 72.7058 151.34 71.7633L152.432 78.5479L149.317 79.049ZM153.977 69.9807C156.008 69.654 156.734 67.8942 156.393 65.7756C156.052 63.657 154.798 62.138 152.768 62.4647C150.7 62.7975 150.037 64.6248 150.377 66.7434C150.718 68.862 151.909 70.3134 153.977 69.9807Z" fill="black"/>
<path d="M139.054 72.7551C136.67 73.2055 134.197 72.0867 133.73 69.6142C133.187 66.74 135.36 65.4456 138.159 64.917L141.422 64.3007C141.121 62.7068 140.166 61.8473 138.346 62.191C137.078 62.4304 136.16 63.4877 135.834 64.4462L133.18 63.1927C134.13 61.2063 135.569 59.9467 137.942 59.4987C141.355 58.8539 143.757 60.5581 144.335 63.6206L145.772 71.2264L143.375 71.6792L142.709 69.946C141.926 71.7187 140.724 72.4398 139.054 72.7551ZM139.131 70.0629C140.888 69.7311 142.085 68.0881 141.839 66.5097L138.764 67.0904C137.371 67.3536 136.718 68.2308 136.867 69.0216C137.024 69.8499 137.951 70.2857 139.131 70.0629Z" fill="black"/>
<path d="M117.471 70.5804L123.201 65.3179L120.401 58.1613L124.093 59.0323L125.702 63.7294L129.24 60.2465L132.957 61.1234L127.229 66.2682L130.027 73.5426L126.31 72.6656L124.722 67.8815L121.163 71.4514L117.471 70.5804Z" fill="black"/>
<path d="M109.964 72.2716C107.538 72.1964 105.365 70.57 105.443 68.055C105.534 65.1314 107.935 64.3369 110.782 64.4252L114.102 64.5281C114.152 62.9067 113.405 61.8612 111.554 61.8038C110.264 61.7638 109.139 62.5979 108.614 63.4634L106.293 61.6663C107.65 59.9321 109.327 59.0129 111.74 59.0877C115.213 59.1953 117.19 61.3779 117.093 64.493L116.853 72.2296L114.415 72.154L114.139 70.3181C112.992 71.8799 111.662 72.3243 109.964 72.2716ZM110.62 69.6595C112.407 69.7149 113.932 68.3693 114.032 66.775L110.904 66.678C109.487 66.6341 108.66 67.3496 108.635 68.1539C108.609 68.9965 109.42 69.6223 110.62 69.6595Z" fill="black"/>
<path d="M99.7712 72.052C95.6403 72.5752 93.2448 69.6212 92.8196 66.2632C92.3991 62.9433 93.9524 59.4506 98.0833 58.9274C100.605 58.6081 102.776 59.788 104.024 61.9216L101.242 63.4328C100.746 62.2596 99.7196 61.6814 98.4524 61.8419C96.3236 62.1115 95.7103 63.9788 95.9495 65.8669C96.1934 67.7929 97.2242 69.4262 99.3784 69.1534C100.62 68.9962 101.492 68.1519 101.683 66.9175L104.618 67.6272C104.08 70.09 102.293 71.7327 99.7712 72.052Z" fill="black"/>
</svg>
