<svg width="1344" height="889" viewBox="0 0 1344 889" fill="none" xmlns="http://www.w3.org/2000/svg">
<path d="M421.304 164.762L1273.87 164.762H1330.26H1334.43L1337.21 162.621L1339.59 159.38V155.676V13.084V9.38028L1337.21 5.67659L1334.43 4.2877L1331.19 3.677L11.4911 3.67741L6.83921 6.30481L4.15527 10.1109V159.817L6.41632 163.201L10.2224 164.762H28.83H421.304Z" fill="white"/>
<path d="M4.84699 884.919H24.6027L24.586 875.042L24.5526 855.286L22.4001 174.5L21.6407 170.813L18.2073 168.275L11.1352 166.507L7.68501 165.738L5.57051 167.007L4.15527 169.789L4.84699 884.919Z" fill="white"/>
<path d="M378.237 199.549L377.948 173.88V183.923L377.254 180.117L375.562 177.156L372.602 174.619L369.219 173.88H118.062H99.4541H45.3231L40.6712 173.773L37.7109 173.151L22.3913 169.321L22.4001 174.5L24.5526 855.286L39.7994 840.849L384.516 838.53L384.054 790.7H116.943H107.557V782.653L108.252 206.629L109.181 204.515L110.45 201.977L112.564 200.709L114.678 199.549H369.642H378.237Z" fill="white"/>
<path d="M384.054 790.7L383.747 759.547H135.128L129.207 756.433L125.033 750.513L125.729 226.083L126.097 224.391L126.984 222.709L128.634 221.854L130.749 221.584H368.373L371.756 221.008L374.716 219.739L377.254 217.202L378.308 215.164V208.744L378.286 205.857L375.985 202.4L373.025 200.286L369.642 199.549H114.678L110.45 201.977L108.252 206.629L107.557 782.653V790.7H116.943H384.054Z" fill="white"/>
<path d="M1274.56 833.25H427.971L427.208 643.486L426.988 553.632L426.91 545.274L427.135 545.062V173.88L377.948 173.88L378.237 199.549L378.308 205.89V205.891L378.485 221.584L383.747 759.547L384.054 790.7L384.516 838.53L384.576 843.888H1295.08L1289.12 180.213L1287.67 176.047L1283.97 173.88H1278.92L1275.17 176.047L1273.87 181.139L1274.56 833.25Z" fill="white"/>
<path d="M39.7994 840.849L24.5526 855.286L24.586 875.042L368.808 872.002L384.516 838.53L39.7994 840.849Z" fill="white"/>
<path d="M1273.87 164.762L421.304 164.762H28.83L19.1033 165.315L22.3913 169.321L37.7109 173.151L40.6712 173.773L45.3231 173.88H99.4541H118.062H369.219H377.948L427.135 173.88H1273.87H1278.92H1283.97H1289.07L1334.43 164.762H1330.26H1273.87Z" fill="white"/>
<path d="M1151.36 496.644H931.006V523.238V532.356H1151.36V523.238V496.644Z" fill="white"/>
<path d="M1169.53 449.535H910.426L931.006 496.644H1151.36L1169.53 449.535Z" fill="white"/>
<path d="M910.426 406.984V449.535H1169.53V406.984H910.426Z" fill="white"/>
<path d="M910.426 406.984H1169.53V395.491L1167.67 392.25L1163.96 391.027H916.277L912.574 392.25L910.426 395.028V406.984Z" fill="white"/>
<path d="M564.081 532.988H638.545L635.441 497.276L631.642 445.197L631.172 442.882L629.783 442.568H623.284H583.013H575.153L573.302 443.345L572.839 445.197L569.304 492.717L564.778 523.87L564.081 532.988Z" fill="white"/>
<path d="M583.013 442.568H623.284V429.271V419.271L621.913 416.494L619.598 415.974H603.148H586.728L584.413 416.494L583.013 418.808V429.271V442.568Z" fill="white"/>
<path d="M534.84 436.864L530.584 438.659L524.192 441.494L514.47 443.345L506.137 442.419L498.73 441.031L491.322 438.659L482.019 525.39L474.702 532.988L487.155 537.927L514.47 542.022L542.248 537.927L548.885 529.189L539.767 523.87L534.84 436.864Z" fill="white"/>
<path d="M502.471 386.99L495.952 389.179L489.933 391.957L484.994 395.197L482.063 400.29L479.748 405.226L477.896 410.938V417.882L479.748 425.742L482.989 430.845L487.155 434.549L491.322 438.659L498.73 441.031L506.137 442.419L514.47 443.345L524.192 441.494L530.584 438.659L534.84 436.864L540.396 430.845L542.742 425.742L545.026 420.197L546.414 415.105L545.489 410.012L544.1 405.226L542.248 400.29L538.544 395.197L534.84 391.957L529.748 389.179L520.706 386.99H502.471Z" fill="white"/>
<path d="M502.471 358.877H519.187L542.742 327.723L549.58 282.133L526.785 279.854H494.112L470.557 282.133L480.435 327.723L502.471 358.877Z" fill="white"/>
<path d="M497.152 358.877V376.353H502.471H520.706H523.746H526.025V358.877H523.746H519.187H502.471H497.152Z" fill="white"/>
<path d="M502.471 376.353V386.99H520.706V376.353H502.471Z" fill="white"/>
<path d="M1256.46 553.631L427.208 553.632V643.486L429.594 790.7L1257.84 790.7L1256.46 553.631Z" fill="white"/>
<path d="M1256.46 553.631V545.273L427.136 545.274L427.208 553.632L1256.46 553.631Z" fill="white"/>
<path d="M4.15527 164.762V159.817M4.15527 164.762H10.2224M4.15527 164.762V169.789M4.15527 164.762L11.1352 166.507M110.45 201.977L108.252 206.629M110.45 201.977L114.678 199.549M110.45 201.977L112.564 200.709L114.678 199.549M110.45 201.977L109.181 204.515L108.252 206.629M378.237 199.549H369.642M378.237 199.549L377.948 173.88M378.237 199.549L378.286 205.857M378.237 199.549L378.308 205.89M384.054 790.7L383.747 759.547M384.054 790.7H116.943H107.557V782.653L108.252 206.629M384.054 790.7L384.516 838.53M378.485 221.584L383.747 759.547M378.485 221.584L378.308 215.164M378.485 221.584H368.373M378.485 221.584L378.308 205.891M383.747 759.547H135.128L129.207 756.433L125.033 750.513L125.729 226.083L126.097 224.391L126.984 222.709L128.634 221.854L130.749 221.584H368.373M1289.07 173.88L1289.12 180.213M1289.07 173.88H1283.97M1289.07 173.88L1334.43 164.762M377.948 173.88L427.135 173.88M377.948 173.88V183.923L377.254 180.117L375.562 177.156L372.602 174.619L369.219 173.88M377.948 173.88H369.219M377.948 173.88L378.308 205.891M384.576 843.888H1295.08L1289.12 180.213M384.576 843.888L384.516 838.53M384.576 843.888L378.308 205.891M22.3913 169.321L37.7109 173.151L40.6712 173.773L45.3231 173.88H99.4541H118.062H369.219M22.3913 169.321L19.1033 165.315L28.83 164.762M22.3913 169.321L22.4001 174.5M22.3913 169.321L18.2073 168.275M24.5526 855.286L39.7994 840.849L384.516 838.53M24.5526 855.286L24.586 875.042M24.5526 855.286L22.4001 174.5M384.516 838.53L368.808 872.002L24.586 875.042M24.586 875.042L24.6027 884.919H4.84699L4.15527 169.789M426.91 545.274L426.988 553.632M426.91 545.274L427.135 545.062M426.91 545.274H427.136M426.988 553.632L427.208 643.486M426.988 553.632H427.208M1256.46 553.631V545.273M1256.46 553.631L1257.84 790.7L429.594 790.7L427.208 643.486M1256.46 553.631L427.208 553.632M1256.46 545.273L1254.8 543.176L1245.08 535.305L1226.14 523.238H1207.09H1151.36M1256.46 545.273L427.136 545.274M910.426 406.984V449.535M910.426 406.984H1169.53M910.426 406.984V395.028L912.574 392.25L916.277 391.027H1163.96L1167.67 392.25L1169.53 395.491V406.984M910.426 449.535H1169.53M910.426 449.535L931.006 496.644M1169.53 449.535V406.984M1169.53 449.535L1151.36 496.644M1151.36 496.644H931.006M1151.36 496.644V523.238M931.006 496.644V523.238M583.013 442.568H623.284M583.013 442.568V429.271V418.808L584.413 416.494L586.728 415.974H603.148H619.598L621.913 416.494L623.284 419.271V429.271V442.568M583.013 442.568H575.153L573.302 443.345L572.839 445.197L569.304 492.717L564.778 523.87M623.284 442.568H629.783L631.172 442.882L631.642 445.197L635.441 497.276L638.545 532.988H564.081L564.778 523.87M523.746 358.877H502.471M523.746 358.877H526.025V376.353H523.746H520.706M523.746 358.877H519.187M502.471 376.353H497.152V358.877H502.471M502.471 376.353V386.99M502.471 376.353H520.706M502.471 386.99L495.952 389.179L489.933 391.957L484.994 395.197L482.063 400.29L479.748 405.226L477.896 410.938V417.882L479.748 425.742L482.989 430.845L487.155 434.549L491.322 438.659M502.471 386.99H520.706M520.706 386.99V376.353M520.706 386.99L529.748 389.179L534.84 391.957L538.544 395.197L542.248 400.29L544.1 405.226L545.489 410.012L546.414 415.105L545.026 420.197L542.742 425.742L540.396 430.845L534.84 436.864M502.471 358.877L480.435 327.723L470.557 282.133L494.112 279.854H526.785L549.58 282.133L542.742 327.723L519.187 358.877M502.471 358.877H519.187M534.84 436.864L530.584 438.659L524.192 441.494L514.47 443.345L506.137 442.419L498.73 441.031L491.322 438.659M534.84 436.864L539.767 523.87M539.767 523.87L548.885 529.189L542.248 537.927L514.47 542.022L487.155 537.927L474.702 532.988M539.767 523.87H564.778M474.702 532.988L482.019 525.39L491.322 438.659M474.702 532.988L482.182 523.87H443.007L427.135 545.062M638.545 523.87L931.006 523.238M931.006 523.238V532.356H1151.36V523.238M427.135 173.88H1273.87M427.135 173.88V545.062M1273.87 173.88H1278.92M1273.87 173.88V181.139M4.15527 159.817V10.1109L6.83921 6.30481L11.4911 3.67741L1331.19 3.677L1334.43 4.2877L1337.21 5.67659L1339.59 9.38028V13.084V155.676V159.38L1337.21 162.621L1334.43 164.762M4.15527 159.817L6.41632 163.201L10.2224 164.762M10.2224 164.762H28.83M28.83 164.762H421.304L1273.87 164.762H1330.26H1334.43M4.15527 169.789L5.57051 167.007L7.68501 165.738L11.1352 166.507M11.1352 166.507L18.2073 168.275M22.4001 174.5L21.6407 170.813L18.2073 168.275M114.678 199.549H369.642M369.642 199.549L373.025 200.286L375.985 202.4L378.286 205.857M378.308 208.744V215.164M378.308 208.744L378.286 205.857M378.308 208.744V205.891M378.308 205.89L378.286 205.857M378.308 205.89V205.891M378.308 215.164L377.254 217.202L374.716 219.739L371.756 221.008L368.373 221.584M1289.12 180.213L1287.67 176.047L1283.97 173.88M1283.97 173.88H1278.92M1278.92 173.88L1275.17 176.047L1273.87 181.139M1273.87 181.139L1274.56 833.25H427.971L427.208 643.486M427.208 643.486V553.632M427.135 545.062L427.136 545.274M427.136 545.274L427.208 553.632" stroke="black" stroke-width="6.89554" stroke-linejoin="round"/>
</svg>
