<svg width="185" height="188" viewBox="0 0 185 188" fill="none" xmlns="http://www.w3.org/2000/svg">
<path d="M9.37232 153.239L23.5629 129.751L42.1575 110.667L70.5387 94.5196L102.345 84.2436L130.237 66.1383L148.342 47.0544L162.044 16.7159L149.321 9.86525L130.237 4.4826L102.345 7.41859L75.9214 16.7159L53.9015 30.4172L34.3282 50.4797L18.1803 72.0103L9.37232 94.5196L4.479 118.007L9.37232 153.239Z" fill="white"/>
<path d="M18.1803 165.962L31.8816 176.238L60.2628 183.578L96.4733 176.238L125.833 159.601L156.661 129.751L172.809 99.9022L180.638 72.0103L178.681 45.5864L172.809 30.4172L164.001 54.3944L149.321 75.925L125.833 91.0942L88.644 107.731L64.1774 118.007L45.5828 133.177L28.4562 153.239L18.1803 165.962Z" fill="white"/>
<path d="M9.37232 153.239L23.5629 129.751L42.1575 110.667L70.5387 94.5196L102.345 84.2436L130.237 66.1383L148.342 47.0544L162.044 16.7159L149.321 9.86525L130.237 4.4826L102.345 7.41859L75.9214 16.7159L53.9015 30.4172L34.3282 50.4797L18.1803 72.0103L9.37232 94.5196L4.479 118.007L9.37232 153.239Z" stroke="black" stroke-width="7.08791"/>
<path d="M18.1803 165.962L31.8816 176.238L60.2628 183.578L96.4733 176.238L125.833 159.601L156.661 129.751L172.809 99.9022L180.638 72.0103L178.681 45.5864L172.809 30.4172L164.001 54.3944L149.321 75.925L125.833 91.0942L88.644 107.731L64.1774 118.007L45.5828 133.177L28.4562 153.239L18.1803 165.962Z" stroke="black" stroke-width="7.08791"/>
</svg>
