<svg width="42" height="43" viewBox="0 0 42 43" fill="none" xmlns="http://www.w3.org/2000/svg">
<path d="M1.94585 35.127L5.18159 29.7713L9.42153 25.4198L15.893 21.7377L23.1455 19.3946L29.5055 15.2662L33.6338 10.9147L36.758 3.99692L33.857 2.43484L29.5055 1.20749L23.1455 1.87695L17.1204 3.99692L12.0994 7.12109L7.6363 11.6958L3.95424 16.6052L1.94585 21.7377L0.830078 27.0934L1.94585 35.127Z" fill="black"/>
<path d="M3.95424 38.028L7.07841 40.3711L13.5499 42.0448L21.8066 40.3711L28.5013 36.5775L35.5306 29.7713L39.2127 22.9651L40.9979 16.6052L40.5516 10.58L39.2127 7.12109L37.2043 12.5884L33.857 17.4978L28.5013 20.9567L20.0214 24.7503L14.4425 27.0934L10.2026 30.5523L6.29737 35.127L3.95424 38.028Z" fill="black"/>
<path d="M1.94585 35.127L5.18159 29.7713L9.42153 25.4198L15.893 21.7377L23.1455 19.3946L29.5055 15.2662L33.6338 10.9147L36.758 3.99692L33.857 2.43484L29.5055 1.20749L23.1455 1.87695L17.1204 3.99692L12.0994 7.12109L7.6363 11.6958L3.95424 16.6052L1.94585 21.7377L0.830078 27.0934L1.94585 35.127Z" stroke="black" stroke-width="1.36625"/>
<path d="M3.95424 38.028L7.07841 40.3711L13.5499 42.0448L21.8066 40.3711L28.5013 36.5775L35.5306 29.7713L39.2127 22.9651L40.9979 16.6052L40.5516 10.58L39.2127 7.12109L37.2043 12.5884L33.857 17.4978L28.5013 20.9567L20.0214 24.7503L14.4425 27.0934L10.2026 30.5523L6.29737 35.127L3.95424 38.028Z" stroke="black" stroke-width="1.36625"/>
</svg>
